<svg width="213" height="142" viewBox="0 0 213 142" fill="none" xmlns="http://www.w3.org/2000/svg">
<path d="M11.4563 80.4925L22.2509 124.384C23.7667 130.546 30.9632 134.006 37.3848 131.661L198.943 72.6681C204.052 70.8024 206.931 65.8322 205.744 60.9244L200.694 40.0508C199.199 33.8705 191.987 30.3884 185.55 32.7389L94.928 65.83L91.711 54.4467C90.0049 48.4092 82.8804 45.1133 76.5411 47.4281L18.2478 68.714C13.1229 70.5854 10.247 75.5763 11.4563 80.4925Z" fill="#C0FF03"/>
<path d="M19.0942 79.3985L33.0179 74.3142C37.6129 72.6364 41.2483 73.4564 42.4806 76.2712C43.3817 78.3295 42.5921 80.7653 40.3958 82.3195L40.4185 82.3712C42.6176 82.1732 44.2886 83.0455 45.0868 84.8688C46.5701 88.257 43.8878 92.1089 38.8658 93.9427L24.0571 99.3501L19.0963 79.4032L19.0942 79.3985ZM35.2381 90.1275C36.6634 89.6071 37.283 88.596 36.8037 87.501C36.4272 86.6411 35.5268 86.3975 34.4154 86.8034L30.2784 88.314L31.1062 91.6363L35.2432 90.1257L35.2381 90.1275ZM33.1297 82.8852C34.555 82.3647 35.0522 81.3056 34.6202 80.3188C34.2787 79.5387 33.4452 79.298 32.3338 79.7038L28.5107 81.0999L29.3087 84.2859L33.1318 82.8899L33.1297 82.8852Z" fill="black"/>
<path d="M43.5713 70.461L51.7886 67.4604L56.7494 87.4073L48.5321 90.4079L43.5713 70.461Z" fill="black"/>
<path d="M56.8911 78.8971C53.834 71.914 57.7887 64.6979 65.6099 61.8419C71.7999 59.5816 76.7833 60.7543 78.9221 64.5081L71.5648 68.4918C70.714 67.3799 69.1736 67.0376 67.4601 67.6633C64.4912 68.7474 63.4297 71.7622 64.6394 74.5253C65.6311 76.7904 67.9617 77.5745 70.73 76.5636C73.1535 75.6787 74.6603 74.131 74.5823 72.5898L67.533 75.1638L66.5375 71.1451L81.4595 65.6964L84.3677 77.3286L78.26 79.5589L77.0606 76.5194L77.0349 76.5288C76.1217 79.2823 73.3933 81.8156 70.0847 83.0237C63.977 85.254 58.9597 83.6086 56.8963 78.8953L56.8911 78.8971Z" fill="black"/>
<path d="M53.5777 107.141C55.6206 111.807 51.0993 116.298 44.935 118.549L44.8475 118.581L45.6064 121.596L44.4641 122.013L43.7237 118.958C38.8819 120.454 34.6083 120.139 32.1451 118.139L36.0943 113.405C37.6943 114.183 40.0673 114.314 42.4115 113.698L41.7668 111.094L39.9371 111.522C34.5056 112.721 31.6234 111.958 30.3108 108.96C28.1774 104.087 32.4331 100.053 38.3968 97.8752L38.4842 97.8433L37.9382 95.6826L39.0805 95.2655L39.6111 97.4591C44.0773 96.1007 47.787 96.4086 49.9528 98.0977L46.3412 102.621C44.9089 101.994 42.8508 101.901 40.8657 102.506L41.4868 104.906L43.6273 104.424C49.2409 103.192 52.225 104.038 53.5807 107.134L53.5777 107.141ZM40.2972 105.161L39.7285 102.948C38.3382 103.549 37.4984 104.275 37.7617 104.877C37.9901 105.398 38.8874 105.403 40.3024 105.159L40.2972 105.161ZM46.0558 111.13C45.7924 110.529 44.7572 110.427 43.121 110.779L42.9389 110.813L43.5507 113.342C45.4031 112.666 46.3747 111.859 46.0558 111.13Z" fill="black"/>
<path d="M52.0879 93.5411L65.5845 88.6128C70.6323 86.7696 74.3479 87.7729 75.967 91.4712C78.1005 96.3444 75.7577 100.372 69.4236 102.685L63.8305 104.727L65.2609 110.489L57.0436 113.49L52.0828 93.543L52.0879 93.5411ZM65.7455 98.741C67.8294 97.9801 68.5828 96.6748 67.8875 95.0864C67.3978 93.968 66.2371 93.6615 64.642 94.2439L61.5342 95.3788L62.6407 99.8693L65.7485 98.7344L65.7455 98.741Z" fill="black"/>
<path d="M76.2513 84.7177L94.0547 78.2167L95.3937 83.6198L85.5503 87.2141L86.0583 89.356L94.7902 86.1675L95.9111 90.7727L87.2101 93.9499L87.8004 96.3615L97.9576 92.6526L99.2965 98.0557L81.2049 104.662L76.2441 84.7149L76.2513 84.7177Z" fill="black"/>
<path d="M96.1074 77.4668L105.693 73.9665L116.16 82.8387L116.217 82.818L113.335 71.1763L120.924 68.405L125.885 88.3519L116.299 91.8523L105.797 82.9002L105.74 82.9209L108.658 94.6424L101.068 97.4138L96.1074 77.4668Z" fill="black"/>
<path d="M123.44 67.4864L134.652 63.3923C141.702 60.8183 146.817 62.1554 149.018 67.1836C152.098 74.2184 148.942 79.9329 140.123 83.1533L128.396 87.4353L123.435 67.4883L123.44 67.4864ZM137.986 77.7416C141.408 76.4922 142.547 74.0216 141.189 70.9201C140.275 68.8336 138.386 68.2262 135.849 69.1525L132.798 70.2667L134.935 78.8558L137.986 77.7416Z" fill="black"/>
<path d="M149.086 58.122L166.889 51.621L168.228 57.0241L158.385 60.6184L158.893 62.7603L167.625 59.5718L168.746 64.177L160.045 67.3542L160.635 69.7658L170.792 66.0569L172.131 71.4599L154.04 78.0661L149.079 58.1192L149.086 58.122Z" fill="black"/>
<path d="M186.08 62.8072L184.914 61.3579C184.149 60.6726 183.202 60.4733 182.147 60.8584L180.547 61.4428L182.141 67.8101L173.893 70.822L168.932 50.875L182.599 45.8847C187.708 44.019 191.41 44.8418 192.906 48.2582C194.184 51.1764 193.191 54.1987 189.968 56.4331L189.98 56.4613C190.824 56.4257 191.464 56.8242 192.018 57.5592L193.208 58.6947C193.583 59.1026 194.079 59.254 194.738 59.0135C195.108 58.8782 195.591 58.5493 195.856 58.2402L197.685 61.1369C196.696 62.4355 194.598 63.8337 192.741 64.512C189.715 65.6167 187.515 64.5178 186.068 62.8062L186.08 62.8072ZM183.008 55.5572C184.891 54.8695 185.604 53.7042 184.977 52.271C184.532 51.2559 183.494 50.9973 182.007 51.5403L178.41 52.8537L179.406 56.8724L183.002 55.559L183.008 55.5572Z" fill="black"/>
</svg>
