<svg width="342" height="140" viewBox="0 0 342 140" fill="none" xmlns="http://www.w3.org/2000/svg">
<path d="M77.4748 52H39.9628V0.447999H76.7548V12.688H55.1548V20.464H73.8748V31.048H55.1548V39.76H77.4748V52ZM95.2644 68.56C91.7604 68.56 88.3524 68.08 85.0404 67.12C81.7764 66.16 79.1364 64.888 77.1204 63.304L80.7204 52.72C82.4484 54.064 84.4884 55.144 86.8404 55.96C89.2404 56.776 91.5924 57.184 93.8964 57.184C97.1604 57.184 99.7524 56.344 101.672 54.664C103.64 53.032 104.624 50.8 104.624 47.968V44.728H104.552C103.496 47.224 101.936 49.168 99.8724 50.56C97.8564 51.952 95.5764 52.648 93.0324 52.648C89.1924 52.648 86.1444 51.424 83.8884 48.976C81.6804 46.528 80.5764 43.192 80.5764 38.968V14.848H94.4724V35.872C94.4724 37.6 94.8804 38.992 95.6964 40.048C96.5604 41.104 97.7124 41.632 99.1524 41.632C100.736 41.632 102.032 41.08 103.04 39.976C104.096 38.872 104.624 37.384 104.624 35.512V14.848H118.592V48.544C118.592 52.576 117.632 56.08 115.712 59.056C113.792 62.08 111.056 64.408 107.504 66.04C104 67.72 99.9204 68.56 95.2644 68.56ZM145.566 53.44C141.054 53.44 137.046 52.6 133.542 50.92C130.038 49.192 127.302 46.792 125.334 43.72C123.414 40.648 122.454 37.12 122.454 33.136C122.454 29.248 123.318 25.816 125.046 22.84C126.774 19.864 129.198 17.56 132.318 15.928C135.438 14.248 139.038 13.408 143.118 13.408C147.054 13.408 150.51 14.176 153.486 15.712C156.462 17.248 158.766 19.408 160.398 22.192C162.078 24.976 162.918 28.192 162.918 31.84C162.918 33.808 162.678 35.584 162.198 37.168H136.782C137.022 39.184 138.006 40.792 139.734 41.992C141.462 43.144 143.622 43.72 146.214 43.72C148.23 43.72 150.174 43.36 152.046 42.64C153.918 41.872 155.406 40.864 156.51 39.616L163.566 46.096C161.934 48.304 159.486 50.08 156.222 51.424C152.958 52.768 149.406 53.44 145.566 53.44ZM148.878 29.968C148.83 27.76 148.254 26.032 147.15 24.784C146.094 23.488 144.726 22.84 143.046 22.84C141.318 22.84 139.878 23.488 138.726 24.784C137.574 26.08 136.878 27.808 136.638 29.968H148.878ZM184.548 53.152C179.172 53.152 174.78 52.048 171.372 49.84C168.012 47.632 166.212 44.44 165.972 40.264L177.852 39.256C178.044 40.888 178.836 42.184 180.228 43.144C181.668 44.104 183.444 44.584 185.556 44.584C187.236 44.584 188.652 44.296 189.804 43.72C190.956 43.096 191.532 42.304 191.532 41.344C191.532 40.432 191.004 39.712 189.948 39.184C188.892 38.608 187.212 38.152 184.908 37.816L179.58 37.096C175.308 36.52 172.212 35.392 170.292 33.712C168.42 32.032 167.484 29.584 167.484 26.368C167.484 22.384 169.044 19.264 172.164 17.008C175.284 14.752 179.436 13.624 184.62 13.624C187.692 13.624 190.476 14.104 192.972 15.064C195.468 15.976 197.484 17.296 199.02 19.024C200.556 20.752 201.42 22.744 201.612 25L190.092 26.368C189.996 24.976 189.396 23.896 188.292 23.128C187.236 22.36 185.844 21.976 184.116 21.976C182.676 21.976 181.476 22.264 180.516 22.84C179.556 23.368 179.076 24.064 179.076 24.928C179.076 25.648 179.532 26.248 180.444 26.728C181.356 27.208 182.82 27.616 184.836 27.952L190.02 28.816C194.868 29.584 198.372 30.88 200.532 32.704C202.74 34.528 203.844 37.072 203.844 40.336C203.844 42.976 203.028 45.256 201.396 47.176C199.812 49.096 197.556 50.584 194.628 51.64C191.748 52.648 188.388 53.152 184.548 53.152ZM241.353 53.44C237.177 53.44 233.481 52.624 230.265 50.992C227.097 49.312 224.649 46.96 222.921 43.936C221.193 40.912 220.329 37.408 220.329 33.424C220.329 29.44 221.193 25.936 222.921 22.912C224.649 19.888 227.097 17.56 230.265 15.928C233.481 14.248 237.177 13.408 241.353 13.408C245.577 13.408 249.273 14.248 252.441 15.928C255.609 17.56 258.057 19.888 259.785 22.912C261.561 25.936 262.449 29.44 262.449 33.424C262.449 37.408 261.561 40.912 259.785 43.936C258.057 46.96 255.609 49.312 252.441 50.992C249.273 52.624 245.577 53.44 241.353 53.44ZM241.353 42.064C243.657 42.064 245.457 41.296 246.753 39.76C248.097 38.224 248.769 36.112 248.769 33.424C248.769 30.736 248.097 28.624 246.753 27.088C245.457 25.504 243.657 24.712 241.353 24.712C239.097 24.712 237.297 25.504 235.953 27.088C234.609 28.624 233.937 30.736 233.937 33.424C233.937 36.112 234.609 38.224 235.953 39.76C237.297 41.296 239.097 42.064 241.353 42.064ZM292.908 13.912C296.46 13.912 299.244 14.944 301.26 17.008C303.324 19.072 304.356 21.928 304.356 25.576V52H290.388V30.4C290.388 28.864 289.98 27.664 289.164 26.8C288.396 25.936 287.34 25.504 285.996 25.504C284.268 25.504 282.876 26.08 281.82 27.232C280.764 28.336 280.236 29.848 280.236 31.768V52H266.34V14.848H277.932L280.236 22.336H280.308C281.508 19.648 283.212 17.584 285.42 16.144C287.628 14.656 290.124 13.912 292.908 13.912ZM22.8653 125.44C17.9213 125.44 14.0333 124.12 11.2013 121.48C8.41728 118.792 7.02528 115.144 7.02528 110.536L6.95328 97.216H0.689281V86.848H7.02528V77.128L20.9213 74.032V86.848H34.6733V97.216H20.9213V108.16C20.9213 110.128 21.4493 111.664 22.5053 112.768C23.5613 113.872 24.8573 114.424 26.3933 114.424C27.8813 114.424 29.1773 114.16 30.2813 113.632C31.3853 113.104 32.5373 112.24 33.7373 111.04L36.4013 120.616C34.7213 122.104 32.6573 123.28 30.2093 124.144C27.8093 125.008 25.3613 125.44 22.8653 125.44ZM40.1802 124V70.288H54.0762V94.336H54.1482C55.3962 91.648 57.1002 89.584 59.2602 88.144C61.4682 86.656 63.9642 85.912 66.7482 85.912C70.3002 85.912 73.0842 86.944 75.1002 89.008C77.1642 91.072 78.1962 93.928 78.1962 97.576V124H64.2282V102.4C64.2282 100.864 63.8202 99.664 63.0042 98.8C62.2362 97.936 61.1802 97.504 59.8362 97.504C58.1082 97.504 56.7162 98.08 55.6602 99.232C54.6042 100.336 54.0762 101.848 54.0762 103.768V124H40.1802ZM105.101 125.44C100.589 125.44 96.5811 124.6 93.0771 122.92C89.5731 121.192 86.8371 118.792 84.8691 115.72C82.9491 112.648 81.9891 109.12 81.9891 105.136C81.9891 101.248 82.8531 97.816 84.5811 94.84C86.3091 91.864 88.7331 89.56 91.8531 87.928C94.9731 86.248 98.5731 85.408 102.653 85.408C106.589 85.408 110.045 86.176 113.021 87.712C115.997 89.248 118.301 91.408 119.933 94.192C121.613 96.976 122.453 100.192 122.453 103.84C122.453 105.808 122.213 107.584 121.733 109.168H96.3171C96.5571 111.184 97.5411 112.792 99.2691 113.992C100.997 115.144 103.157 115.72 105.749 115.72C107.765 115.72 109.709 115.36 111.581 114.64C113.453 113.872 114.941 112.864 116.045 111.616L123.101 118.096C121.469 120.304 119.021 122.08 115.757 123.424C112.493 124.768 108.941 125.44 105.101 125.44ZM108.413 101.968C108.365 99.76 107.789 98.032 106.685 96.784C105.629 95.488 104.261 94.84 102.581 94.84C100.853 94.84 99.4131 95.488 98.2611 96.784C97.1091 98.08 96.4131 99.808 96.1731 101.968H108.413ZM140.868 139.12V86.848H152.388L154.692 94.336H154.764C155.916 91.552 157.524 89.464 159.588 88.072C161.652 86.632 164.1 85.912 166.932 85.912C169.956 85.912 172.62 86.704 174.924 88.288C177.228 89.872 179.028 92.152 180.324 95.128C181.62 98.056 182.268 101.488 182.268 105.424C182.268 109.312 181.62 112.744 180.324 115.72C179.028 118.648 177.228 120.904 174.924 122.488C172.62 124.072 169.956 124.864 166.932 124.864C164.148 124.864 161.724 124.168 159.66 122.776C157.596 121.336 155.988 119.2 154.836 116.368H154.764V139.12H140.868ZM161.244 113.272C163.308 113.272 164.988 112.528 166.284 111.04C167.628 109.552 168.3 107.68 168.3 105.424C168.3 103.168 167.628 101.296 166.284 99.808C164.988 98.32 163.308 97.576 161.244 97.576C159.18 97.576 157.476 98.32 156.132 99.808C154.836 101.296 154.188 103.168 154.188 105.424C154.188 107.68 154.836 109.552 156.132 111.04C157.476 112.528 159.18 113.272 161.244 113.272ZM209.693 85.912C213.005 85.912 215.717 87.112 217.829 89.512C219.941 91.912 221.213 95.272 221.645 99.592L209.981 102.616C209.837 100.504 209.333 98.872 208.469 97.72C207.653 96.52 206.549 95.92 205.157 95.92C203.573 95.92 202.325 96.616 201.413 98.008C200.501 99.4 200.045 101.344 200.045 103.84V124H186.149V86.848H197.165L199.397 92.968H199.469C200.429 90.76 201.821 89.032 203.645 87.784C205.469 86.536 207.485 85.912 209.693 85.912ZM232.088 82.96C229.736 82.96 227.84 82.264 226.4 80.872C225.008 79.48 224.312 77.656 224.312 75.4C224.312 73.144 225.008 71.32 226.4 69.928C227.84 68.536 229.736 67.84 232.088 67.84C234.44 67.84 236.336 68.536 237.776 69.928C239.216 71.32 239.936 73.144 239.936 75.4C239.936 77.656 239.216 79.48 237.776 80.872C236.336 82.264 234.44 82.96 232.088 82.96ZM239.072 124H225.104V86.848H239.072V124ZM278.643 124H243.435V112.696L261.651 96.784H244.155V86.848H277.923V98.152L259.635 113.992H278.643V124ZM304.789 125.44C300.277 125.44 296.269 124.6 292.765 122.92C289.261 121.192 286.525 118.792 284.557 115.72C282.637 112.648 281.677 109.12 281.677 105.136C281.677 101.248 282.541 97.816 284.269 94.84C285.997 91.864 288.421 89.56 291.541 87.928C294.661 86.248 298.261 85.408 302.341 85.408C306.277 85.408 309.733 86.176 312.709 87.712C315.685 89.248 317.989 91.408 319.621 94.192C321.301 96.976 322.141 100.192 322.141 103.84C322.141 105.808 321.901 107.584 321.421 109.168H296.005C296.245 111.184 297.229 112.792 298.957 113.992C300.685 115.144 302.845 115.72 305.437 115.72C307.453 115.72 309.397 115.36 311.269 114.64C313.141 113.872 314.629 112.864 315.733 111.616L322.789 118.096C321.157 120.304 318.709 122.08 315.445 123.424C312.181 124.768 308.629 125.44 304.789 125.44ZM308.101 101.968C308.053 99.76 307.477 98.032 306.373 96.784C305.317 95.488 303.949 94.84 302.269 94.84C300.541 94.84 299.101 95.488 297.949 96.784C296.797 98.08 296.101 99.808 295.861 101.968H308.101ZM333.267 124.72C331.011 124.72 329.139 124.024 327.651 122.632C326.211 121.24 325.491 119.44 325.491 117.232C325.491 115.024 326.211 113.224 327.651 111.832C329.139 110.392 331.011 109.672 333.267 109.672C335.571 109.672 337.443 110.392 338.883 111.832C340.371 113.224 341.115 115.024 341.115 117.232C341.115 119.44 340.371 121.24 338.883 122.632C337.443 124.024 335.571 124.72 333.267 124.72Z" fill="white"/>
</svg>
