<svg width="1176" height="385" viewBox="0 0 1176 385" fill="none" xmlns="http://www.w3.org/2000/svg">
<g clip-path="url(#clip0_202_61779)">
<path d="M0 7.99999C0 3.58171 3.58172 0 8 0H1168C1172.42 0 1176 3.58172 1176 8V377C1176 381.418 1172.42 385 1168 385H8.00002C3.58174 385 0 381.418 0 377V7.99999Z" fill="#13131B"/>
<path d="M-312.112 476.498H1411.97C1443.65 390.705 1461.34 295.091 1461.34 194.264C1461.34 -176.197 1222.57 -476.5 928.032 -476.5C722.146 -476.5 543.509 -329.742 454.626 -114.888C370.994 -233.296 249.139 -307.893 113.462 -307.893C-138.708 -307.893 -343.136 -50.2567 -343.136 267.572C-343.136 341.28 -332.142 411.724 -312.112 476.498Z" fill="black"/>
<path d="M-64.2795 476.5H1418.87C1446.12 402.795 1461.34 320.651 1461.34 234.03C1461.34 -84.235 1255.94 -342.228 1002.56 -342.228C825.445 -342.228 671.772 -216.146 595.31 -31.5639C523.365 -133.29 418.539 -197.376 301.822 -197.376C84.8917 -197.376 -90.9678 23.961 -90.9678 297.009C-90.9678 360.333 -81.5101 420.852 -64.2795 476.5Z" fill="#8000FF"/>
<path d="M151.366 476.499H1424.87C1448.27 413.113 1461.34 342.47 1461.34 267.976C1461.34 -5.73242 1284.97 -227.606 1067.41 -227.606C915.328 -227.606 783.377 -119.176 717.723 39.5647C655.947 -47.9195 565.938 -103.034 465.719 -103.034C279.452 -103.034 128.45 87.316 128.45 322.138C128.45 376.596 136.571 428.642 151.366 476.499Z" fill="black"/>
<path d="M331.607 476.499H1429.89C1450.07 421.957 1461.34 361.171 1461.34 297.072C1461.34 61.5556 1309.24 -129.359 1121.61 -129.359C990.453 -129.359 876.658 -36.0589 820.037 100.532C766.761 25.2551 689.137 -22.1686 602.707 -22.1686C442.069 -22.1686 311.844 141.621 311.844 343.676C311.844 390.536 318.847 435.32 331.607 476.499Z" fill="#8000FF"/>
<path d="M527.956 475.713H1436.13C1452.82 430.677 1462.14 380.484 1462.14 327.555C1462.14 133.082 1336.36 -24.5615 1181.21 -24.5615C1072.76 -24.5615 978.662 52.479 931.842 165.266C887.788 103.108 823.6 63.9486 752.131 63.9486C619.298 63.9486 511.614 199.194 511.614 366.038C511.614 404.731 517.405 441.71 527.956 475.713Z" fill="black"/>
<path d="M717.842 476.499H1440.64C1453.92 440.531 1461.34 400.445 1461.34 358.174C1461.34 202.861 1361.24 76.9603 1237.76 76.9603C1151.44 76.9603 1076.55 138.488 1039.29 228.564C1004.23 178.922 953.14 147.648 896.258 147.648C790.539 147.648 704.835 255.66 704.835 388.908C704.835 419.81 709.445 449.343 717.842 476.499Z" fill="#8000FF"/>
<path d="M901.299 476.5H1445.75C1455.75 449.376 1461.34 419.147 1461.34 387.271C1461.34 270.149 1385.94 175.208 1292.92 175.208C1227.91 175.208 1171.5 221.606 1143.43 289.532C1117.02 252.097 1078.54 228.514 1035.69 228.514C956.058 228.514 891.502 309.965 891.502 410.447C891.502 433.75 894.974 456.021 901.299 476.5Z" fill="black"/>
<path d="M1091.2 476.499H1451.03C1457.64 458.515 1461.34 438.472 1461.34 417.337C1461.34 339.68 1411.5 276.73 1350.03 276.73C1307.06 276.73 1269.77 307.494 1251.22 352.532C1233.77 327.711 1208.34 312.074 1180.02 312.074C1127.39 312.074 1084.72 366.08 1084.72 432.704C1084.72 448.155 1087.02 462.921 1091.2 476.499Z" fill="#8000FF"/>
<rect width="1176" height="186" fill="url(#paint0_linear_202_61779)"/>
<g style="mix-blend-mode:plus-lighter" opacity="0.6">
<path d="M0 113H1176.42V514H0V113Z" fill="url(#paint1_linear_202_61779)"/>
</g>
</g>
<defs>
<linearGradient id="paint0_linear_202_61779" x1="588" y1="0" x2="588" y2="186" gradientUnits="userSpaceOnUse">
<stop stop-opacity="0.5"/>
<stop offset="1" stop-opacity="0"/>
</linearGradient>
<linearGradient id="paint1_linear_202_61779" x1="588.21" y1="113" x2="588.21" y2="514" gradientUnits="userSpaceOnUse">
<stop stop-color="#8000FF" stop-opacity="0"/>
<stop offset="1" stop-color="#8000FF"/>
</linearGradient>
<clipPath id="clip0_202_61779">
<path d="M0 7.99999C0 3.58171 3.58172 0 8 0H1168C1172.42 0 1176 3.58172 1176 8V377C1176 381.418 1172.42 385 1168 385H8.00002C3.58174 385 0 381.418 0 377V7.99999Z" fill="white"/>
</clipPath>
</defs>
</svg>
