<svg width="175" height="32" viewBox="0 0 175 32" fill="none" xmlns="http://www.w3.org/2000/svg">
<path d="M13.8792 31.3005H4.13329L0 0.699452H9.00623L10.442 21.0273L19.0132 0.699452H28.7155L13.8792 31.3005Z" fill="white"/>
<path d="M24.2189 31.3005L29.5704 0.699452H38.2721L32.9205 31.3005H24.2189Z" fill="white"/>
<path d="M47.3235 32C44.0749 32 41.4209 31.3443 39.3615 30.0328C37.3311 28.6922 35.9533 26.7832 35.2282 24.306L42.7551 20.4153C43.6833 22.7468 45.4526 23.9126 48.0631 23.9126C50.1225 23.9126 51.2538 23.3734 51.4568 22.2951C51.5728 21.5956 51.2102 21.0565 50.3691 20.6776C49.905 20.4444 49.4989 20.2696 49.1508 20.153C48.7738 20.0073 47.7151 19.6721 45.9747 19.1475C40.5797 17.2823 38.3028 13.9308 39.1439 9.0929C39.608 6.38251 40.9423 4.18215 43.1467 2.4918C45.3221 0.830601 47.9761 0 51.1087 0C53.7192 0 55.9527 0.612022 57.809 1.83607C59.6654 3.06011 61.0721 4.82331 62.0293 7.12568L54.6764 11.0601C53.9223 9.07832 52.5445 8.08743 50.5431 8.08743C49.0058 8.08743 48.1357 8.61202 47.9326 9.6612C47.7876 10.3315 48.0486 10.8561 48.7158 11.235C49.4699 11.7013 50.7752 12.2404 52.6315 12.8525C55.039 13.6685 56.9098 14.674 58.2441 15.8689C59.9844 17.4135 60.5935 19.7887 60.0714 22.9945C59.5494 25.9381 58.1861 28.1821 55.9817 29.7268C53.7772 31.2423 50.8912 32 47.3235 32Z" fill="white"/>
<path d="M87.3536 31.3005H78.2603L77.9123 27.3661H69.1236L67.3832 31.3005H57.7679L72.8218 0.699452H83.0027L87.3536 31.3005ZM76.3895 10.9727L72.2127 20.3716H77.2596L76.3895 10.9727Z" fill="white"/>
<path d="M114.597 9.74863C114.075 12.4007 112.697 14.4117 110.463 15.7814C112.755 17.3843 113.668 19.7013 113.204 22.7322C112.827 25.326 111.551 27.4098 109.376 28.9836C107.229 30.5282 104.474 31.3005 101.109 31.3005H88.2305L93.5821 0.699452H105.242C108.549 0.699452 111.058 1.5592 112.769 3.27869C114.452 4.96903 115.061 7.12568 114.597 9.74863ZM103.85 8.21858H100.978L100.239 12.3279L103.589 12.2842C104.865 12.1093 105.605 11.439 105.808 10.2732C105.924 9.57377 105.793 9.06375 105.416 8.74317C105.039 8.39344 104.517 8.21858 103.85 8.21858ZM104.72 21.5956C104.923 20.3424 104.43 19.6284 103.241 19.4536L99.0206 19.4098L98.2375 23.7814H101.892C102.617 23.7814 103.226 23.592 103.72 23.2131C104.242 22.8051 104.575 22.2659 104.72 21.5956Z" fill="#4264FF"/>
<path d="M138.851 0.699452L137.459 8.65574H126.364L125.799 11.9781H135.806L134.413 19.847H124.406L123.797 23.2568H135.109L133.717 31.3005H113.703L119.055 0.699452H138.851Z" fill="#4264FF"/>
<path d="M139.941 0.699452H163L161.521 9.18033H154.342L150.47 31.3005H141.768L145.64 9.18033H138.461L139.941 0.699452Z" fill="#4264FF"/>
<path d="M170 4.80001V1.20001H171.25L172.5 2.40001L173.75 1.20001H175V4.80001H173.75V2.40001L172.5 3.60001L171.25 2.40001V4.80001M166.25 4.80001V2.40001H165V1.20001H168.75V2.40001H167.5V4.80001" fill="#4264FF"/>
</svg>
