<svg width="20" height="20" viewBox="0 0 20 20" fill="none" xmlns="http://www.w3.org/2000/svg">
<path fill-rule="evenodd" clip-rule="evenodd" d="M1.66675 3.39282C1.66675 2.89973 2.06648 2.5 2.55957 2.5H17.4406C17.9337 2.5 18.3334 2.89973 18.3334 3.39282C18.3334 3.88592 17.9337 4.28564 17.4406 4.28564H2.55957C2.06648 4.28564 1.66675 3.88592 1.66675 3.39282ZM1.66675 9.64273C1.66675 9.14965 2.06648 8.74991 2.55957 8.74991H17.4406C17.9337 8.74991 18.3334 9.14965 18.3334 9.64273C18.3334 10.1358 17.9337 10.5356 17.4406 10.5356H2.55957C2.06648 10.5356 1.66675 10.1358 1.66675 9.64273ZM2.55957 15.0004C2.06648 15.0004 1.66675 15.4002 1.66675 15.8932C1.66675 16.3863 2.06648 16.7861 2.55957 16.7861H17.4406C17.9337 16.7861 18.3334 16.3863 18.3334 15.8932C18.3334 15.4002 17.9337 15.0004 17.4406 15.0004H2.55957Z" fill="#626273"/>
</svg>
