<svg width="150" height="201" viewBox="0 0 150 201" fill="none" xmlns="http://www.w3.org/2000/svg">
<g clip-path="url(#clip0_147_52950)">
<rect width="150" height="200.535" rx="12" fill="#222235"/>
<g style="mix-blend-mode:overlay" opacity="0.4">
<mask id="mask0_147_52950" style="mask-type:luminance" maskUnits="userSpaceOnUse" x="-21" y="-26" width="424" height="283">
<path d="M402.674 -25.6685H-20.8557V256.684H402.674V-25.6685Z" fill="white"/>
</mask>
<g mask="url(#mask0_147_52950)">
<path fill-rule="evenodd" clip-rule="evenodd" d="M47.0957 -13.2617C47.0957 -13.2617 47.6153 -6.49655 45.2266 -1.4142C45.2266 -1.4142 51.3423 -1.04714 56.419 2.88885C55.5494 -3.48103 58.2882 -8.95866 58.2882 -8.95866C52.692 -9.42737 47.0957 -13.2617 47.0957 -13.2617Z" fill="white"/>
<path fill-rule="evenodd" clip-rule="evenodd" d="M115.499 91.9941C113.003 91.4407 111.585 93.5809 111.585 93.5809C111.585 93.5809 112.139 91.3898 110.202 90.1475C108.44 89.0181 106.774 90.1136 106.774 90.1136C106.774 90.1136 104.989 91.0058 105.091 93.0952C105.198 95.3936 107.372 96.0091 107.372 96.0091C107.372 96.0091 104.809 96.1672 104.041 98.6068C103.239 101.142 105.65 103.463 107.92 103.085C109.97 102.746 111.986 100.894 111.371 98.0816C113.499 100.019 116.108 99.1941 117.43 97.5903C118.892 95.8115 118.091 92.5644 115.493 91.9884L115.499 91.9941Z" fill="white"/>
<path fill-rule="evenodd" clip-rule="evenodd" d="M111.297 97.9462C112.709 101.713 109.518 103.266 109.518 103.266L109.688 103.554L116.967 99.3523L116.797 99.0643C116.797 99.0643 113.855 101.052 111.303 97.9462H111.297Z" fill="white"/>
<path fill-rule="evenodd" clip-rule="evenodd" d="M80.1309 -1.01327C78.1262 -0.239628 78.5723 1.57307 78.5723 1.57307C78.5723 1.57307 77.2226 0.285545 75.5511 1.62954C73.8796 2.97354 75.0542 5.70106 77.008 6.26012C79.0353 6.83612 81.9831 7.49119 81.9831 7.49119C81.9831 7.49119 82.8923 4.60555 83.4062 2.56696C83.8975 0.596135 82.1243 -1.78692 80.1252 -1.01327H80.1309Z" fill="white"/>
<path fill-rule="evenodd" clip-rule="evenodd" d="M91.2728 52.4816C87.1899 54.0627 88.0935 57.7559 88.0935 57.7559C88.0935 57.7559 85.349 55.1244 81.9382 57.8688C78.5273 60.6133 80.9273 66.1757 84.9085 67.3107C89.0365 68.491 95.0563 69.818 95.0563 69.818C95.0563 69.818 96.9142 63.9394 97.9589 59.7775C98.9641 55.7625 95.3499 50.906 91.2671 52.4816H91.2728Z" fill="white"/>
<path fill-rule="evenodd" clip-rule="evenodd" d="M47.0957 -13.2617C47.0957 -13.2617 47.6153 -6.49655 45.2266 -1.4142C45.2266 -1.4142 51.3423 -1.04714 56.419 2.88885C55.5494 -3.48103 58.2882 -8.95866 58.2882 -8.95866C52.692 -9.42737 47.0957 -13.2617 47.0957 -13.2617Z" fill="white"/>
<path fill-rule="evenodd" clip-rule="evenodd" d="M72.9421 31.271C75.3704 33.7275 77.9963 31.9543 77.9963 31.9543L78.16 32.2423L70.9657 36.3929L70.8019 36.1049C70.8019 36.1049 73.648 34.7157 72.7332 31.3839C72.8066 32.1519 72.7332 34.1002 70.2824 35.0489C67.1934 36.2404 64.4603 32.5698 65.2226 29.5317C66.0132 26.3863 67.4193 21.9364 67.4193 21.9364C67.4193 21.9364 71.9708 22.9416 75.0937 23.8338C78.1035 24.6922 79.9163 28.8992 77.3412 30.9717C75.297 32.615 73.5689 31.7115 72.9421 31.2597V31.271Z" fill="white"/>
<path fill-rule="evenodd" clip-rule="evenodd" d="M108.829 5.87631C107.242 5.52619 106.339 6.88714 106.339 6.88714C106.339 6.88714 106.695 5.49232 105.458 4.70173C104.334 3.97891 103.278 4.67914 103.278 4.67914C103.278 4.67914 102.143 5.24384 102.205 6.57654C102.273 8.03913 103.656 8.42878 103.656 8.42878C103.656 8.42878 102.024 8.53044 101.539 10.0834C101.031 11.6984 102.561 13.1723 104.007 12.9351C105.311 12.7205 106.593 11.5403 106.203 9.7502C107.559 10.9813 109.219 10.4617 110.06 9.4396C110.992 8.30454 110.478 6.24337 108.829 5.87631Z" fill="white"/>
<path fill-rule="evenodd" clip-rule="evenodd" d="M106.158 9.66555C107.056 12.0599 105.023 13.0481 105.023 13.0481L105.13 13.2345L109.761 10.5578L109.653 10.3714C109.653 10.3714 107.778 11.6364 106.158 9.65991V9.66555Z" fill="white"/>
<path fill-rule="evenodd" clip-rule="evenodd" d="M121.908 36.9408C121.908 36.9408 122.275 41.69 120.592 45.2589C120.592 45.2589 124.884 45.513 128.453 48.2801C127.843 43.8076 129.768 39.962 129.768 39.962C125.838 39.6288 121.908 36.9408 121.908 36.9408Z" fill="white"/>
<path fill-rule="evenodd" clip-rule="evenodd" d="M134.653 19.1919C136.071 20.6262 137.601 19.5928 137.601 19.5928L137.697 19.7622L133.501 22.1848L133.405 22.0154C133.405 22.0154 135.066 21.2079 134.535 19.2653C134.58 19.7114 134.535 20.8521 133.106 21.4055C131.305 22.1001 129.712 19.9599 130.153 18.1867C130.616 16.3514 131.435 13.7594 131.435 13.7594C131.435 13.7594 134.089 14.3467 135.913 14.8662C137.669 15.3688 138.725 17.8196 137.223 19.0281C136.031 19.9881 135.026 19.4573 134.659 19.1975L134.653 19.1919Z" fill="white"/>
<path fill-rule="evenodd" clip-rule="evenodd" d="M102.612 34.7949C101.025 34.4448 100.122 35.8057 100.122 35.8057C100.122 35.8057 100.477 34.4109 99.2406 33.6203C98.1168 32.8975 97.0608 33.5977 97.0608 33.5977C97.0608 33.5977 95.9258 34.1624 95.9879 35.4951C96.0556 36.9577 97.4392 37.3474 97.4392 37.3474C97.4392 37.3474 95.8072 37.449 95.3215 39.002C94.8133 40.617 96.3436 42.0909 97.7893 41.8537C99.0938 41.6391 100.376 40.4589 99.986 38.6688C101.341 39.8998 103.002 39.3803 103.843 38.3582C104.775 37.2231 104.261 35.1619 102.612 34.7949Z" fill="white"/>
<path fill-rule="evenodd" clip-rule="evenodd" d="M99.9409 38.5841C100.839 40.9785 98.8059 41.9667 98.8059 41.9667L98.9132 42.1531L103.544 39.4764L103.436 39.29C103.436 39.29 101.562 40.555 99.9409 38.5785V38.5841Z" fill="white"/>
<path fill-rule="evenodd" clip-rule="evenodd" d="M125.031 121.731C125.031 121.731 125.55 128.496 123.162 133.579C123.162 133.579 129.277 133.946 134.354 137.882C133.484 131.512 136.223 126.034 136.223 126.034C130.627 125.566 125.031 121.731 125.031 121.731Z" fill="white"/>
<path fill-rule="evenodd" clip-rule="evenodd" d="M144.649 71.0432C142.644 71.8169 143.09 73.6296 143.09 73.6296C143.09 73.6296 141.74 72.3421 140.069 73.6861C138.397 75.0301 139.572 77.7576 141.526 78.3167C143.553 78.8927 146.501 79.5477 146.501 79.5477C146.501 79.5477 147.41 76.6621 147.924 74.6235C148.415 72.6527 146.642 70.2696 144.643 71.0432H144.649Z" fill="white"/>
<path fill-rule="evenodd" clip-rule="evenodd" d="M120.101 73.3588C121.518 74.7931 123.049 73.7597 123.049 73.7597L123.145 73.9291L118.949 76.3517L118.853 76.1823C118.853 76.1823 120.513 75.3747 119.982 73.4322C120.028 73.8783 119.982 75.019 118.554 75.5724C116.752 76.267 115.16 74.1268 115.6 72.3536C116.063 70.5183 116.882 67.9263 116.882 67.9263C116.882 67.9263 119.536 68.5136 121.36 69.0331C123.116 69.5357 124.172 71.9865 122.67 73.195C121.479 74.155 120.474 73.6242 120.107 73.3644L120.101 73.3588Z" fill="white"/>
<path fill-rule="evenodd" clip-rule="evenodd" d="M156.801 49.274C155.214 48.9239 154.31 50.2848 154.31 50.2848C154.31 50.2848 154.666 48.89 153.43 48.0994C152.306 47.3766 151.25 48.0769 151.25 48.0769C151.25 48.0769 150.115 48.6416 150.177 49.9743C150.245 51.4368 151.628 51.8265 151.628 51.8265C151.628 51.8265 149.996 51.9282 149.51 53.4811C149.002 55.0962 150.533 56.57 151.978 56.3329C153.283 56.1183 154.565 54.938 154.175 53.1479C155.53 54.379 157.19 53.8594 158.032 52.8373C158.964 51.7023 158.45 49.6411 156.801 49.274Z" fill="white"/>
<path fill-rule="evenodd" clip-rule="evenodd" d="M135.969 100.99C135.969 100.99 136.217 104.231 135.071 106.665C135.071 106.665 137.996 106.84 140.43 108.726C140.012 105.677 141.328 103.051 141.328 103.051C138.651 102.825 135.969 100.99 135.969 100.99Z" fill="white"/>
<path fill-rule="evenodd" clip-rule="evenodd" d="M125.031 121.731C125.031 121.731 125.55 128.496 123.162 133.579C123.162 133.579 129.277 133.946 134.354 137.882C133.484 131.512 136.223 126.034 136.223 126.034C130.627 125.566 125.031 121.731 125.031 121.731Z" fill="white"/>
<path fill-rule="evenodd" clip-rule="evenodd" d="M150.883 166.264C153.311 168.72 155.937 166.947 155.937 166.947L156.101 167.235L148.906 171.386L148.743 171.098C148.743 171.098 151.589 169.709 150.674 166.377C150.747 167.145 150.674 169.093 148.223 170.042C145.134 171.233 142.401 167.563 143.163 164.525C143.954 161.379 145.36 156.929 145.36 156.929C145.36 156.929 149.912 157.935 153.034 158.827C156.044 159.685 157.857 163.892 155.282 165.965C153.238 167.608 151.51 166.705 150.883 166.253V166.264Z" fill="white"/>
<path fill-rule="evenodd" clip-rule="evenodd" d="M18.2842 9.36624C16.2795 10.1399 16.7256 11.9526 16.7256 11.9526C16.7256 11.9526 15.3759 10.6651 13.7044 12.0091C12.0329 13.3531 13.2075 16.0806 15.1614 16.6397C17.1886 17.2157 20.1364 17.8707 20.1364 17.8707C20.1364 17.8707 21.0456 14.9851 21.5595 12.9465C22.0508 10.9757 20.2776 8.59259 18.2785 9.36624H18.2842Z" fill="white"/>
<path fill-rule="evenodd" clip-rule="evenodd" d="M47.0899 -13.2617C47.0899 -13.2617 47.6094 -6.49655 45.2207 -1.4142C45.2207 -1.4142 51.3365 -1.04714 56.4132 2.88885C55.5435 -3.48103 58.2824 -8.95866 58.2824 -8.95866C52.6861 -9.42737 47.0899 -13.2617 47.0899 -13.2617Z" fill="white"/>
<path fill-rule="evenodd" clip-rule="evenodd" d="M116.176 91.5987C113.68 91.0453 112.263 93.1855 112.263 93.1855C112.263 93.1855 112.816 90.9945 110.879 89.7521C109.117 88.6227 107.451 89.7182 107.451 89.7182C107.451 89.7182 105.667 90.6105 105.768 92.6999C105.876 94.9982 108.05 95.6138 108.05 95.6138C108.05 95.6138 105.486 95.7719 104.718 98.2114C103.916 100.747 106.328 103.068 108.598 102.69C110.648 102.351 112.664 100.498 112.048 97.6862C114.177 99.6232 116.786 98.7987 118.107 97.1949C119.57 95.4161 118.768 92.1691 116.17 91.5931L116.176 91.5987Z" fill="white"/>
<path fill-rule="evenodd" clip-rule="evenodd" d="M111.974 97.5505C113.386 101.317 110.196 102.87 110.196 102.87L110.365 103.158L117.644 98.9566L117.475 98.6686C117.475 98.6686 114.532 100.656 111.98 97.5505H111.974Z" fill="white"/>
<path fill-rule="evenodd" clip-rule="evenodd" d="M18.2842 9.36624C16.2795 10.1399 16.7256 11.9526 16.7256 11.9526C16.7256 11.9526 15.3759 10.6651 13.7044 12.0091C12.0329 13.3531 13.2075 16.0806 15.1614 16.6397C17.1886 17.2157 20.1364 17.8707 20.1364 17.8707C20.1364 17.8707 21.0456 14.9851 21.5595 12.9465C22.0508 10.9757 20.2776 8.59259 18.2785 9.36624H18.2842Z" fill="white"/>
<path fill-rule="evenodd" clip-rule="evenodd" d="M3.25185 60.376C0.366203 61.4941 1.00431 64.1031 1.00431 64.1031C1.00431 64.1031 -0.938263 62.2452 -3.34391 64.1822C-5.74956 66.1191 -4.05546 70.0495 -1.24322 70.8513C1.67066 71.6815 5.92855 72.6245 5.92855 72.6245C5.92855 72.6245 7.24432 68.4739 7.97844 65.5318C8.68997 62.6913 6.1375 59.2635 3.25185 60.376Z" fill="white"/>
<path fill-rule="evenodd" clip-rule="evenodd" d="M91.2728 52.4816C87.1899 54.0627 88.0935 57.7559 88.0935 57.7559C88.0935 57.7559 85.349 55.1244 81.9382 57.8688C78.5273 60.6133 80.9273 66.1757 84.9085 67.3107C89.0365 68.491 95.0563 69.818 95.0563 69.818C95.0563 69.818 96.9142 63.9394 97.9589 59.7775C98.9641 55.7625 95.3499 50.906 91.2671 52.4816H91.2728Z" fill="white"/>
<path fill-rule="evenodd" clip-rule="evenodd" d="M35.0673 43.7173C35.0673 43.7173 35.3158 46.9587 34.1694 49.3926C34.1694 49.3926 37.0946 49.5676 39.5285 51.4537C39.1106 48.4043 40.4264 45.7785 40.4264 45.7785C37.7497 45.5526 35.0673 43.7173 35.0673 43.7173Z" fill="white"/>
<path fill-rule="evenodd" clip-rule="evenodd" d="M24.2702 104.175C26.5403 106.473 28.9911 104.813 28.9911 104.813L29.1436 105.078L22.4236 108.958L22.2712 108.692C22.2712 108.692 24.9309 107.394 24.0782 104.282C24.146 104.999 24.0782 106.823 21.7855 107.704C18.8999 108.822 16.3474 105.389 17.0589 102.548C17.7987 99.6063 19.1088 95.4557 19.1088 95.4557C19.1088 95.4557 23.361 96.3931 26.2806 97.2289C29.0928 98.0308 30.7869 101.961 28.3813 103.898C26.4726 105.434 24.8575 104.587 24.2702 104.169V104.175Z" fill="white"/>
<path fill-rule="evenodd" clip-rule="evenodd" d="M73.6593 30.938C76.1328 33.4452 78.8095 31.6382 78.8095 31.6382L78.9789 31.9318L71.649 36.1671L71.4796 35.8735C71.4796 35.8735 74.3822 34.4561 73.4504 31.0622C73.5238 31.8471 73.4504 33.8349 70.9544 34.8005C67.809 36.0203 65.0194 32.2763 65.7986 29.1761C66.6005 25.9685 68.0349 21.434 68.0349 21.434C68.0349 21.434 72.6768 22.4561 75.8561 23.3652C78.9281 24.2405 80.7746 28.5267 78.1488 30.6443C76.065 32.3215 74.3031 31.3954 73.665 30.938H73.6593Z" fill="white"/>
<path fill-rule="evenodd" clip-rule="evenodd" d="M47.0899 -13.2617C47.0899 -13.2617 47.6094 -6.49655 45.2207 -1.4142C45.2207 -1.4142 51.3365 -1.04714 56.4132 2.88885C55.5435 -3.48103 58.2824 -8.95866 58.2824 -8.95866C52.6861 -9.42737 47.0899 -13.2617 47.0899 -13.2617Z" fill="white"/>
<path fill-rule="evenodd" clip-rule="evenodd" d="M38.303 128.706C38.303 128.706 38.7096 134.048 36.8291 138.057C36.8291 138.057 41.6573 138.345 45.6667 141.451C44.9778 136.425 47.1406 132.099 47.1406 132.099C42.7246 131.727 38.303 128.706 38.303 128.706Z" fill="white"/>
<path fill-rule="evenodd" clip-rule="evenodd" d="M12.9762 45.0104C14.3936 46.4447 15.9239 45.4113 15.9239 45.4113L16.0199 45.5807L11.8242 48.0033L11.7281 47.8339C11.7281 47.8339 13.3884 47.0264 12.8576 45.0838C12.9027 45.5299 12.8576 46.6706 11.4289 47.224C9.62744 47.9186 8.03498 45.7783 8.47545 44.0052C8.93851 42.1699 9.75733 39.5779 9.75733 39.5779C9.75733 39.5779 12.4114 40.1652 14.2354 40.6847C15.9917 41.1873 17.0477 43.6381 15.5456 44.8466C14.354 45.8066 13.3489 45.2758 12.9818 45.016L12.9762 45.0104Z" fill="white"/>
<path fill-rule="evenodd" clip-rule="evenodd" d="M49.6764 20.9202C48.0895 20.57 47.186 21.931 47.186 21.931C47.186 21.931 47.5417 20.5361 46.305 19.7456C45.1813 19.0227 44.1253 19.723 44.1253 19.723C44.1253 19.723 42.9902 20.2877 43.0523 21.6204C43.1201 23.083 44.5036 23.4726 44.5036 23.4726C44.5036 23.4726 42.8716 23.5743 42.386 25.1272C41.8777 26.7423 43.4081 28.2162 44.8537 27.979C46.1582 27.7644 47.4401 26.5841 47.0505 24.794C48.4058 26.0251 50.066 25.5056 50.9074 24.4834C51.8392 23.3484 51.3253 21.2872 49.6764 20.9202Z" fill="white"/>
<path fill-rule="evenodd" clip-rule="evenodd" d="M47.0052 24.7093C47.903 27.1036 45.8701 28.0918 45.8701 28.0918L45.9774 28.2782L50.608 25.6015L50.5007 25.4151C50.5007 25.4151 48.6259 26.6801 47.0052 24.7036V24.7093Z" fill="white"/>
<path fill-rule="evenodd" clip-rule="evenodd" d="M65.6802 51.7641C63.6755 52.5377 64.1216 54.3504 64.1216 54.3504C64.1216 54.3504 62.7719 53.0629 61.1004 54.4069C59.4289 55.7509 60.6035 58.4784 62.5574 59.0375C64.5846 59.6135 67.5324 60.2685 67.5324 60.2685C67.5324 60.2685 68.4416 57.3829 68.9554 55.3443C69.4467 53.3735 67.6736 50.9904 65.6745 51.7641H65.6802Z" fill="white"/>
<path fill-rule="evenodd" clip-rule="evenodd" d="M28.85 72.6357C28.85 72.6357 29.0985 75.8771 27.9521 78.311C27.9521 78.311 30.8773 78.4861 33.3112 80.3722C32.8933 77.3228 34.2091 74.6969 34.2091 74.6969C31.5324 74.4711 28.85 72.6357 28.85 72.6357Z" fill="white"/>
<path fill-rule="evenodd" clip-rule="evenodd" d="M-2.15251 98.1773C-0.735094 99.6117 0.79526 98.5783 0.79526 98.5783L0.891268 98.7477L-3.30451 101.17L-3.4005 101.001C-3.4005 101.001 -1.74027 100.193 -2.27109 98.2508C-2.22591 98.6969 -2.27109 99.8376 -3.69979 100.391C-5.50121 101.086 -7.09368 98.9454 -6.65321 97.1722C-6.19015 95.3369 -5.37134 92.7449 -5.37134 92.7449C-5.37134 92.7449 -2.71721 93.3322 -0.893205 93.8517C0.86303 94.3543 1.91902 96.8051 0.4169 98.0136C-0.77463 98.9736 -1.77979 98.4428 -2.14685 98.183L-2.15251 98.1773Z" fill="white"/>
<path fill-rule="evenodd" clip-rule="evenodd" d="M77.4935 117.067C78.9109 118.501 80.4413 117.468 80.4413 117.468L80.5372 117.637L76.3415 120.06L76.2455 119.891C76.2455 119.891 77.9057 119.083 77.3749 117.141C77.4201 117.587 77.3749 118.727 75.9462 119.281C74.1448 119.975 72.5523 117.835 72.9928 116.062C73.4558 114.227 74.2747 111.635 74.2747 111.635C74.2747 111.635 76.9288 112.222 78.7528 112.741C80.509 113.244 81.565 115.695 80.0629 116.903C78.8714 117.863 77.8662 117.333 77.4991 117.073L77.4935 117.067Z" fill="white"/>
<path fill-rule="evenodd" clip-rule="evenodd" d="M60.5862 79.5025C58.9994 79.1524 58.0959 80.5134 58.0959 80.5134C58.0959 80.5134 58.4517 79.1185 57.215 78.328C56.0912 77.6051 55.0352 78.3053 55.0352 78.3053C55.0352 78.3053 53.9001 78.8701 53.9622 80.2028C54.03 81.6654 55.4135 82.055 55.4135 82.055C55.4135 82.055 53.7815 82.1566 53.2959 83.7096C52.7877 85.3246 54.318 86.7985 55.7637 86.5613C57.0681 86.3468 58.35 85.1665 57.9604 83.3764C59.3157 84.6075 60.9759 84.088 61.8173 83.0658C62.7491 81.9308 62.2352 79.8696 60.5862 79.5025Z" fill="white"/>
<path fill-rule="evenodd" clip-rule="evenodd" d="M57.9095 83.2862C58.8074 85.6805 56.7744 86.6688 56.7744 86.6688L56.8817 86.8551L61.5123 84.1784L61.405 83.9921C61.405 83.9921 59.5302 85.257 57.9095 83.2805V83.2862Z" fill="white"/>
<path fill-rule="evenodd" clip-rule="evenodd" d="M68.0802 163.892C64.9856 163.209 63.2294 165.857 63.2294 165.857C63.2294 165.857 63.9183 163.147 61.5183 161.605C59.3329 160.205 57.2774 161.566 57.2774 161.566C57.2774 161.566 55.0694 162.667 55.1936 165.259C55.3292 168.105 58.0228 168.867 58.0228 168.867C58.0228 168.867 54.8492 169.065 53.8948 172.086C52.9009 175.226 55.8826 178.1 58.7005 177.631C61.236 177.208 63.7376 174.915 62.9753 171.437C65.6068 173.837 68.8482 172.82 70.4802 170.832C72.2929 168.63 71.299 164.609 68.0802 163.898V163.892Z" fill="white"/>
<path fill-rule="evenodd" clip-rule="evenodd" d="M62.8794 171.267C64.63 175.932 60.6714 177.857 60.6714 177.857L60.8803 178.219L69.8987 173.012L69.6897 172.651C69.6897 172.651 66.0417 175.113 62.8794 171.267Z" fill="white"/>
<path fill-rule="evenodd" clip-rule="evenodd" d="M96.2249 144.359C94.2202 145.133 94.6663 146.945 94.6663 146.945C94.6663 146.945 93.3166 145.658 91.6451 147.002C89.9735 148.346 91.1481 151.073 93.102 151.632C95.1293 152.208 98.0771 152.864 98.0771 152.864C98.0771 152.864 98.9863 149.978 99.5002 147.939C99.9914 145.968 98.2183 143.585 96.2192 144.359H96.2249Z" fill="white"/>
<path fill-rule="evenodd" clip-rule="evenodd" d="M28.3927 190.778C29.8101 192.212 31.3404 191.179 31.3404 191.179L31.4364 191.348L27.2407 193.771L27.1447 193.601C27.1447 193.601 28.8049 192.794 28.2741 190.851C28.3193 191.297 28.2741 192.438 26.8454 192.991C25.044 193.686 23.4515 191.546 23.892 189.773C24.3494 187.937 25.1738 185.345 25.1738 185.345C25.1738 185.345 27.828 185.933 29.652 186.452C31.4082 186.955 32.4642 189.406 30.9621 190.614C29.7706 191.574 28.7654 191.043 28.3983 190.783L28.3927 190.778Z" fill="white"/>
<path fill-rule="evenodd" clip-rule="evenodd" d="M125.031 121.731C125.031 121.731 125.55 128.496 123.162 133.579C123.162 133.579 129.277 133.946 134.354 137.882C133.484 131.512 136.223 126.034 136.223 126.034C130.627 125.566 125.031 121.731 125.031 121.731Z" fill="white"/>
<path fill-rule="evenodd" clip-rule="evenodd" d="M51.1218 105.931C49.1171 106.705 49.5632 108.517 49.5632 108.517C49.5632 108.517 48.2136 107.23 46.5421 108.574C44.8705 109.918 46.0451 112.645 47.999 113.204C50.0263 113.78 52.974 114.435 52.974 114.435C52.974 114.435 53.8832 111.55 54.3971 109.511C54.8884 107.54 53.1152 105.157 51.1162 105.931H51.1218Z" fill="white"/>
<path fill-rule="evenodd" clip-rule="evenodd" d="M7.83716 150.029C5.83245 150.802 6.27856 152.615 6.27856 152.615C6.27856 152.615 4.92891 151.328 3.25738 152.672C1.58585 154.016 2.76045 156.743 4.71433 157.302C6.74163 157.878 9.68939 158.533 9.68939 158.533C9.68939 158.533 10.5986 155.648 11.1124 153.609C11.6037 151.638 9.83056 149.255 7.8315 150.029H7.83716Z" fill="white"/>
<path fill-rule="evenodd" clip-rule="evenodd" d="M83.0392 87.115C83.0392 87.115 83.2877 90.3564 82.1414 92.7903C82.1414 92.7903 85.0665 92.9654 87.5004 94.8515C87.0825 91.8021 88.3983 89.1761 88.3983 89.1761C85.7216 88.9503 83.0392 87.115 83.0392 87.115Z" fill="white"/>
<path fill-rule="evenodd" clip-rule="evenodd" d="M19.9954 128.259C18.4086 127.909 17.5051 129.27 17.5051 129.27C17.5051 129.27 17.8608 127.875 16.6241 127.085C15.5004 126.362 14.4444 127.062 14.4444 127.062C14.4444 127.062 13.3093 127.627 13.3714 128.959C13.4392 130.422 14.8227 130.812 14.8227 130.812C14.8227 130.812 13.1907 130.913 12.7051 132.466C12.1968 134.081 13.7272 135.555 15.1728 135.318C16.4773 135.103 17.7592 133.923 17.3695 132.133C18.7248 133.364 20.3851 132.845 21.2265 131.823C22.1582 130.687 21.6444 128.626 19.9954 128.259Z" fill="white"/>
<path fill-rule="evenodd" clip-rule="evenodd" d="M17.3187 132.048C18.2165 134.443 16.1836 135.431 16.1836 135.431L16.2909 135.617L20.9215 132.941L20.8142 132.754C20.8142 132.754 18.9394 134.019 17.3187 132.043V132.048Z" fill="white"/>
<path fill-rule="evenodd" clip-rule="evenodd" d="M35.9936 159.098C33.9889 159.872 34.4351 161.684 34.4351 161.684C34.4351 161.684 33.0854 160.397 31.4139 161.741C29.7424 163.085 30.9169 165.812 32.8708 166.371C34.8981 166.947 37.8459 167.602 37.8459 167.602C37.8459 167.602 38.7551 164.717 39.2689 162.678C39.7602 160.707 37.9871 158.324 35.988 159.098H35.9936Z" fill="white"/>
<path fill-rule="evenodd" clip-rule="evenodd" d="M-0.836739 179.975C-0.836739 179.975 -0.588266 183.217 -1.73462 185.65C-1.73462 185.65 1.19057 185.825 3.62445 187.712C3.20657 184.662 4.52233 182.036 4.52233 182.036C1.84563 181.81 -0.836739 179.975 -0.836739 179.975Z" fill="white"/>
<path fill-rule="evenodd" clip-rule="evenodd" d="M105.644 126.136C107.062 127.57 108.592 126.537 108.592 126.537L108.688 126.706L104.492 129.129L104.396 128.96C104.396 128.96 106.057 128.152 105.526 126.209C105.571 126.656 105.526 127.796 104.097 128.35C102.296 129.044 100.703 126.904 101.144 125.131C101.601 123.296 102.426 120.704 102.426 120.704C102.426 120.704 105.08 121.291 106.904 121.81C108.66 122.313 109.716 124.764 108.214 125.972C107.022 126.932 106.017 126.401 105.65 126.142L105.644 126.136Z" fill="white"/>
<path fill-rule="evenodd" clip-rule="evenodd" d="M73.6029 141.739C72.016 141.389 71.1125 142.75 71.1125 142.75C71.1125 142.75 71.4683 141.355 70.2316 140.564C69.1078 139.841 68.0518 140.542 68.0518 140.542C68.0518 140.542 66.9167 141.106 66.9788 142.439C67.0466 143.902 68.4301 144.291 68.4301 144.291C68.4301 144.291 66.7981 144.393 66.3125 145.946C65.8043 147.561 67.3346 149.035 68.7803 148.798C70.0847 148.583 71.3666 147.403 70.977 145.613C72.3323 146.844 73.9925 146.324 74.8339 145.302C75.7657 144.167 75.2518 142.106 73.6029 141.739Z" fill="white"/>
<path fill-rule="evenodd" clip-rule="evenodd" d="M70.9317 145.528C71.8296 147.922 69.7966 148.91 69.7966 148.91L69.9039 149.097L74.5345 146.42L74.4272 146.234C74.4272 146.234 72.5524 147.499 70.9317 145.522V145.528Z" fill="white"/>
<path fill-rule="evenodd" clip-rule="evenodd" d="M68.0802 163.892C64.9856 163.209 63.2294 165.857 63.2294 165.857C63.2294 165.857 63.9183 163.147 61.5183 161.605C59.3329 160.205 57.2774 161.566 57.2774 161.566C57.2774 161.566 55.0694 162.667 55.1936 165.259C55.3292 168.105 58.0228 168.867 58.0228 168.867C58.0228 168.867 54.8492 169.065 53.8948 172.086C52.9009 175.226 55.8826 178.1 58.7005 177.631C61.236 177.208 63.7376 174.915 62.9753 171.437C65.6068 173.837 68.8482 172.82 70.4802 170.832C72.2929 168.63 71.299 164.609 68.0802 163.898V163.892Z" fill="white"/>
<path fill-rule="evenodd" clip-rule="evenodd" d="M62.8794 171.267C64.63 175.932 60.6714 177.857 60.6714 177.857L60.8803 178.219L69.8987 173.012L69.6897 172.651C69.6897 172.651 66.0417 175.113 62.8794 171.267Z" fill="white"/>
<path fill-rule="evenodd" clip-rule="evenodd" d="M96.2249 144.359C94.2202 145.133 94.6663 146.945 94.6663 146.945C94.6663 146.945 93.3166 145.658 91.6451 147.002C89.9735 148.346 91.1481 151.073 93.102 151.632C95.1293 152.208 98.0771 152.864 98.0771 152.864C98.0771 152.864 98.9863 149.978 99.5002 147.939C99.9914 145.968 98.2183 143.585 96.2192 144.359H96.2249Z" fill="white"/>
<path fill-rule="evenodd" clip-rule="evenodd" d="M81.1928 195.375C78.3071 196.493 78.9452 199.102 78.9452 199.102C78.9452 199.102 77.0026 197.244 74.597 199.181C72.1914 201.118 73.8855 205.048 76.6977 205.85C79.6116 206.68 83.8695 207.623 83.8695 207.623C83.8695 207.623 85.1853 203.472 85.9194 200.53C86.6309 197.69 84.0784 194.262 81.1928 195.375Z" fill="white"/>
<path fill-rule="evenodd" clip-rule="evenodd" d="M53.1774 194.149C53.1774 194.149 53.4259 197.391 52.2795 199.825C52.2795 199.825 55.2047 200 57.6386 201.886C57.2207 198.836 58.5365 196.21 58.5365 196.21C55.8598 195.985 53.1774 194.149 53.1774 194.149Z" fill="white"/>
<path fill-rule="evenodd" clip-rule="evenodd" d="M113.008 178.71C113.008 178.71 113.257 181.951 112.11 184.385C112.11 184.385 115.036 184.56 117.469 186.446C117.052 183.397 118.367 180.771 118.367 180.771C115.691 180.545 113.008 178.71 113.008 178.71Z" fill="white"/>
<path fill-rule="evenodd" clip-rule="evenodd" d="M151.594 165.937C154.068 168.444 156.745 166.637 156.745 166.637L156.914 166.93L149.584 171.166L149.415 170.872C149.415 170.872 152.317 169.455 151.385 166.061C151.459 166.846 151.385 168.833 148.889 169.799C145.744 171.019 142.954 167.275 143.734 164.175C144.536 160.967 145.97 156.432 145.97 156.432C145.97 156.432 150.612 157.455 153.791 158.364C156.863 159.239 158.71 163.525 156.084 165.643C154 167.32 152.238 166.394 151.6 165.937H151.594Z" fill="white"/>
<path fill-rule="evenodd" clip-rule="evenodd" d="M28.3927 190.778C29.8101 192.212 31.3404 191.179 31.3404 191.179L31.4364 191.348L27.2407 193.771L27.1447 193.601C27.1447 193.601 28.8049 192.794 28.2741 190.851C28.3193 191.297 28.2741 192.438 26.8454 192.991C25.044 193.686 23.4515 191.546 23.892 189.773C24.3494 187.937 25.1738 185.345 25.1738 185.345C25.1738 185.345 27.828 185.933 29.652 186.452C31.4082 186.955 32.4642 189.406 30.9621 190.614C29.7706 191.574 28.7654 191.043 28.3983 190.783L28.3927 190.778Z" fill="white"/>
<path fill-rule="evenodd" clip-rule="evenodd" d="M125.031 121.731C125.031 121.731 125.55 128.496 123.162 133.579C123.162 133.579 129.277 133.946 134.354 137.882C133.484 131.512 136.223 126.034 136.223 126.034C130.627 125.566 125.031 121.731 125.031 121.731Z" fill="white"/>
<path fill-rule="evenodd" clip-rule="evenodd" d="M90.9168 180.003C92.3342 181.438 93.8646 180.404 93.8646 180.404L93.9606 180.574L89.7648 182.996L89.6688 182.827C89.6688 182.827 91.329 182.019 90.7982 180.077C90.8434 180.523 90.7982 181.663 89.3695 182.217C87.5681 182.911 85.9757 180.771 86.4161 178.998C86.8792 177.163 87.698 174.571 87.698 174.571C87.698 174.571 90.3521 175.158 92.1761 175.678C93.9323 176.18 94.9883 178.631 93.4862 179.84C92.2947 180.8 91.2895 180.269 90.9225 180.009L90.9168 180.003Z" fill="white"/>
<path fill-rule="evenodd" clip-rule="evenodd" d="M127.617 155.913C126.03 155.563 125.127 156.924 125.127 156.924C125.127 156.924 125.483 155.529 124.246 154.738C123.122 154.016 122.066 154.716 122.066 154.716C122.066 154.716 120.931 155.28 120.993 156.613C121.061 158.076 122.445 158.465 122.445 158.465C122.445 158.465 120.813 158.567 120.327 160.12C119.819 161.735 121.349 163.209 122.795 162.972C124.099 162.757 125.381 161.577 124.991 159.787C126.347 161.018 128.007 160.498 128.848 159.476C129.78 158.341 129.266 156.28 127.617 155.913Z" fill="white"/>
<path fill-rule="evenodd" clip-rule="evenodd" d="M124.946 159.702C125.844 162.096 123.811 163.085 123.811 163.085L123.919 163.271L128.549 160.594L128.442 160.408C128.442 160.408 126.567 161.673 124.946 159.696V159.702Z" fill="white"/>
<path fill-rule="evenodd" clip-rule="evenodd" d="M143.615 186.757C141.61 187.531 142.056 189.344 142.056 189.344C142.056 189.344 140.707 188.056 139.035 189.4C137.364 190.744 138.538 193.472 140.492 194.031C142.519 194.607 145.467 195.262 145.467 195.262C145.467 195.262 146.376 192.376 146.89 190.337C147.382 188.367 145.608 185.984 143.609 186.757H143.615Z" fill="white"/>
<path d="M47.0051 9.41143L34.5703 4.73566L36.7388 -8.37117M51.4042 11.066L63.839 15.7418L66.0075 2.63496M56.5035 -19.7895L68.9383 -15.1137L66.7698 -2.00693M37.5011 -13.013L39.6696 -26.1199L52.1044 -21.4441" stroke="white" stroke-width="1.60428" stroke-linecap="round" stroke-linejoin="round"/>
<path d="M47.0051 9.41143L34.5703 4.73566L36.7388 -8.37117M51.4042 11.066L63.839 15.7418L66.0075 2.63496M56.5035 -19.7895L68.9383 -15.1137L66.7698 -2.00693M37.5011 -13.013L39.6696 -26.1199L52.1044 -21.4441" stroke="white" stroke-width="1.60428" stroke-linecap="round" stroke-linejoin="round"/>
<path d="M102.459 20.1238L93.2715 16.6678L94.8696 6.98308M105.712 21.3492L114.9 24.8052L116.498 15.1205M109.479 -1.44798L118.666 2.00802L117.068 11.6927M95.44 3.55532L97.0381 -6.12939L106.226 -2.67338" stroke="white" stroke-width="1.60428" stroke-linecap="round" stroke-linejoin="round"/>
<path d="M86.0601 77.0632L73.6252 72.3874L75.7937 59.2806M90.4591 78.7121L102.894 83.3879L105.062 70.2811M95.5584 47.8566L107.993 52.5324L105.825 65.6392M76.5561 54.6331L78.7245 41.5262L91.1594 46.202" stroke="white" stroke-width="1.60428" stroke-linecap="round" stroke-linejoin="round"/>
<path d="M141.52 87.7755L132.332 84.3195L133.93 74.6348M144.767 88.9953L153.955 92.4513L155.553 82.7666M148.534 66.1981L157.721 69.6541L156.123 79.3388M134.495 71.2071L136.093 61.5223L145.281 64.9783" stroke="white" stroke-width="1.60428" stroke-linecap="round" stroke-linejoin="round"/>
<path d="M154.807 37.3699L142.373 32.6941L144.541 19.5873M159.206 39.0245L171.641 43.7003L173.81 30.5934M164.306 8.16897L176.741 12.8447L174.572 25.9516M145.303 14.9454L147.472 1.83862L159.907 6.51439" stroke="white" stroke-width="1.60428" stroke-linecap="round" stroke-linejoin="round"/>
<path d="M124.946 144.404L112.511 139.728L114.679 126.622M129.345 146.059L141.78 150.735L143.948 137.628M134.444 115.203L146.879 119.879L144.711 132.986M115.442 121.98L117.61 108.873L130.045 113.549" stroke="white" stroke-width="1.60428" stroke-linecap="round" stroke-linejoin="round"/>
<path d="M129.48 26.5844L127.673 33.3213" stroke="white" stroke-width="1.60428" stroke-linecap="round" stroke-linejoin="round"/>
<path d="M122.693 51.9115L120.886 58.6484" stroke="white" stroke-width="1.60428" stroke-linecap="round" stroke-linejoin="round"/>
<path d="M141.215 46.908L134.478 45.1066" stroke="white" stroke-width="1.60428" stroke-linecap="round" stroke-linejoin="round"/>
<path d="M115.888 40.1259L109.151 38.3188" stroke="white" stroke-width="1.60428" stroke-linecap="round" stroke-linejoin="round"/>
<path d="M85.3656 19.8357L79.3232 23.3199" stroke="white" stroke-width="1.60428" stroke-linecap="round" stroke-linejoin="round"/>
<path d="M62.6586 32.9425L56.6162 36.4324" stroke="white" stroke-width="1.60428" stroke-linecap="round" stroke-linejoin="round"/>
<path d="M124.426 87.4819L118.384 90.9718" stroke="white" stroke-width="1.60428" stroke-linecap="round" stroke-linejoin="round"/>
<path d="M101.72 100.595L95.6772 104.079" stroke="white" stroke-width="1.60428" stroke-linecap="round" stroke-linejoin="round"/>
<path d="M154.768 107.467L148.031 105.666" stroke="white" stroke-width="1.60428" stroke-linecap="round" stroke-linejoin="round"/>
<path d="M124.946 144.404L112.511 139.728L114.679 126.622M129.345 146.059L141.78 150.735L143.948 137.628M134.444 115.203L146.879 119.879L144.711 132.986M115.442 121.98L117.61 108.873L130.045 113.549" stroke="white" stroke-width="1.60428" stroke-linecap="round" stroke-linejoin="round"/>
<path d="M140.6 167.935L134.558 171.425" stroke="white" stroke-width="1.60428" stroke-linecap="round" stroke-linejoin="round"/>
<path d="M154.768 107.467L148.031 105.666" stroke="white" stroke-width="1.60428" stroke-linecap="round" stroke-linejoin="round"/>
<path d="M-21.0588 48.7092L-33.4937 44.0334L-31.3252 30.9266M-16.6598 50.3637L-4.22495 55.0395L-2.05647 41.9327M-11.5605 19.5082L0.874341 24.184L-1.29413 37.2908M-30.5628 26.2847L-28.3944 13.1779L-15.9595 17.8536" stroke="white" stroke-width="1.60428" stroke-linecap="round" stroke-linejoin="round"/>
<path d="M47.0051 9.41143L34.5703 4.73566L36.7388 -8.37117M51.4042 11.066L63.839 15.7418L66.0075 2.63496M56.5035 -19.7895L68.9383 -15.1137L66.7698 -2.00693M37.5011 -13.013L39.6696 -26.1199L52.1044 -21.4441" stroke="white" stroke-width="1.60428" stroke-linecap="round" stroke-linejoin="round"/>
<path d="M22.3559 -1.7699L20.5488 4.96706" stroke="white" stroke-width="1.60428" stroke-linecap="round" stroke-linejoin="round"/>
<path d="M15.568 23.5573L13.7666 30.2942" stroke="white" stroke-width="1.60428" stroke-linecap="round" stroke-linejoin="round"/>
<path d="M34.0905 18.5594L27.3535 16.7523" stroke="white" stroke-width="1.60428" stroke-linecap="round" stroke-linejoin="round"/>
<path d="M8.76896 11.7717L2.02637 9.9646" stroke="white" stroke-width="1.60428" stroke-linecap="round" stroke-linejoin="round"/>
<path d="M-21.0588 48.7092L-33.4937 44.0334L-31.3252 30.9266M-16.6598 50.3637L-4.22495 55.0395L-2.05647 41.9327M-11.5605 19.5082L0.874341 24.184L-1.29413 37.2908M-30.5628 26.2847L-28.3944 13.1779L-15.9595 17.8536" stroke="white" stroke-width="1.60428" stroke-linecap="round" stroke-linejoin="round"/>
<path d="M47.0051 9.41143L34.5703 4.73566L36.7388 -8.37117M51.4042 11.066L63.839 15.7418L66.0075 2.63496M56.5035 -19.7895L68.9383 -15.1137L66.7698 -2.00693M37.5011 -13.013L39.6696 -26.1199L52.1044 -21.4441" stroke="white" stroke-width="1.60428" stroke-linecap="round" stroke-linejoin="round"/>
<path d="M34.3953 59.4216L25.2075 55.9656L26.8056 46.2809M37.648 60.6414L46.8357 64.0974L48.4339 54.4127M41.4146 37.8442L50.6023 41.3002L49.0042 50.9849M27.376 42.8532L28.9741 33.1685L38.1619 36.6245" stroke="white" stroke-width="1.60428" stroke-linecap="round" stroke-linejoin="round"/>
<path d="M4.70875 166.761L-4.479 163.305L-2.88089 153.62M7.96147 167.981L17.1492 171.437L18.7474 161.752M11.728 145.184L20.9158 148.64L19.3177 158.324M-2.31054 150.193L-0.712426 140.508L8.47535 143.964" stroke="white" stroke-width="1.60428" stroke-linecap="round" stroke-linejoin="round"/>
<path d="M17.9961 116.355L5.56128 111.68L7.72975 98.5728M22.3952 118.01L34.83 122.686L36.9984 109.579M27.4945 87.1545L39.9293 91.8302L37.7608 104.937M8.4921 93.9309L10.6606 80.8241L23.0954 85.4999" stroke="white" stroke-width="1.60428" stroke-linecap="round" stroke-linejoin="round"/>
<path d="M-11.8652 223.39L-24.3 218.714L-22.1316 205.607M-7.46617 225.044L4.96865 229.72L7.13713 216.613M-2.36688 194.189L10.068 198.864L7.89947 211.971M-21.3692 200.965L-19.2008 187.858L-6.76594 192.534" stroke="white" stroke-width="1.60428" stroke-linecap="round" stroke-linejoin="round"/>
<path d="M56.8818 183.702L44.447 179.026L46.6155 165.919M61.2753 185.357L73.7101 190.032L75.8786 176.926M66.3745 154.501L78.8094 159.177L76.6409 172.284M47.3778 161.278L49.5463 148.171L61.9811 152.847" stroke="white" stroke-width="1.60428" stroke-linecap="round" stroke-linejoin="round"/>
<path d="M124.946 144.404L112.511 139.728L114.679 126.622M129.345 146.059L141.78 150.735L143.948 137.628M134.444 115.203L146.879 119.879L144.711 132.986M115.442 121.98L117.61 108.873L130.045 113.549" stroke="white" stroke-width="1.60428" stroke-linecap="round" stroke-linejoin="round"/>
<path d="M86.0601 77.0632L73.6252 72.3874L75.7937 59.2806M90.4591 78.7121L102.894 83.3879L105.062 70.2811M95.5584 47.8622L107.993 52.538L105.825 65.6448M76.5561 54.6331L78.7245 41.5262L91.1594 46.202" stroke="white" stroke-width="1.60428" stroke-linecap="round" stroke-linejoin="round"/>
<path d="M73.4561 127.073L64.2683 123.617L65.8664 113.933M76.7031 128.293L85.8909 131.749L87.489 122.064M80.4697 105.496L89.6575 108.952L88.0594 118.637M66.4311 110.499L68.0293 100.815L77.217 104.271" stroke="white" stroke-width="1.60428" stroke-linecap="round" stroke-linejoin="round"/>
<path d="M4.40934 125.899L-2.33325 124.092" stroke="white" stroke-width="1.60428" stroke-linecap="round" stroke-linejoin="round"/>
<path d="M17.3016 59.1279L11.2593 62.6178" stroke="white" stroke-width="1.60428" stroke-linecap="round" stroke-linejoin="round"/>
<path d="M86.0433 19.4404L80.001 22.9303" stroke="white" stroke-width="1.60428" stroke-linecap="round" stroke-linejoin="round"/>
<path d="M63.3368 32.5531L57.2944 36.0373" stroke="white" stroke-width="1.60428" stroke-linecap="round" stroke-linejoin="round"/>
<path d="M56.3565 126.78L50.3198 130.27" stroke="white" stroke-width="1.60428" stroke-linecap="round" stroke-linejoin="round"/>
<path d="M33.6497 139.892L27.613 143.376" stroke="white" stroke-width="1.60428" stroke-linecap="round" stroke-linejoin="round"/>
<path d="M125.098 87.0924L119.061 90.5767" stroke="white" stroke-width="1.60428" stroke-linecap="round" stroke-linejoin="round"/>
<path d="M102.391 100.199L96.3545 103.689" stroke="white" stroke-width="1.60428" stroke-linecap="round" stroke-linejoin="round"/>
<path d="M61.4108 65.8818L59.6094 72.6188" stroke="white" stroke-width="1.60428" stroke-linecap="round" stroke-linejoin="round"/>
<path d="M54.6288 91.209L52.8218 97.9459" stroke="white" stroke-width="1.60428" stroke-linecap="round" stroke-linejoin="round"/>
<path d="M73.1512 86.2055L66.4143 84.4041" stroke="white" stroke-width="1.60428" stroke-linecap="round" stroke-linejoin="round"/>
<path d="M47.8241 79.4236L41.0872 77.6166" stroke="white" stroke-width="1.60428" stroke-linecap="round" stroke-linejoin="round"/>
<path d="M31.5549 172.916L29.7478 179.653" stroke="white" stroke-width="1.60428" stroke-linecap="round" stroke-linejoin="round"/>
<path d="M24.767 198.238L22.96 204.98" stroke="white" stroke-width="1.60428" stroke-linecap="round" stroke-linejoin="round"/>
<path d="M43.2894 193.24L36.5525 191.439" stroke="white" stroke-width="1.60428" stroke-linecap="round" stroke-linejoin="round"/>
<path d="M17.9623 186.458L11.2253 184.651" stroke="white" stroke-width="1.60428" stroke-linecap="round" stroke-linejoin="round"/>
<path d="M100.296 133.223L98.4893 139.96" stroke="white" stroke-width="1.60428" stroke-linecap="round" stroke-linejoin="round"/>
<path d="M93.5087 158.55L91.7017 165.287" stroke="white" stroke-width="1.60428" stroke-linecap="round" stroke-linejoin="round"/>
<path d="M112.031 153.552L105.294 151.745" stroke="white" stroke-width="1.60428" stroke-linecap="round" stroke-linejoin="round"/>
<path d="M86.7037 146.765L79.9668 144.963" stroke="white" stroke-width="1.60428" stroke-linecap="round" stroke-linejoin="round"/>
<path d="M22.3559 -1.7699L20.5488 4.96706" stroke="white" stroke-width="1.60428" stroke-linecap="round" stroke-linejoin="round"/>
<path d="M15.568 23.5573L13.7666 30.2942" stroke="white" stroke-width="1.60428" stroke-linecap="round" stroke-linejoin="round"/>
<path d="M34.0905 18.5594L27.3535 16.7523" stroke="white" stroke-width="1.60428" stroke-linecap="round" stroke-linejoin="round"/>
<path d="M8.76896 11.7717L2.02637 9.9646" stroke="white" stroke-width="1.60428" stroke-linecap="round" stroke-linejoin="round"/>
<path d="M-11.8652 223.39L-24.3 218.714L-22.1316 205.607M-7.46617 225.044L4.96865 229.72L7.13713 216.613M-2.36688 194.189L10.068 198.864L7.89947 211.971M-21.3692 200.965L-19.2008 187.858L-6.76594 192.534" stroke="white" stroke-width="1.60428" stroke-linecap="round" stroke-linejoin="round"/>
<path d="M56.8818 183.702L44.447 179.026L46.6155 165.919M61.2753 185.357L73.7101 190.032L75.8786 176.926M66.3745 154.501L78.8094 159.177L76.6409 172.284M47.3778 161.278L49.5463 148.171L61.9811 152.847" stroke="white" stroke-width="1.60428" stroke-linecap="round" stroke-linejoin="round"/>
<path d="M124.946 144.404L112.511 139.728L114.679 126.622M129.345 146.059L141.78 150.735L143.948 137.628M134.444 115.203L146.879 119.879L144.711 132.986M115.442 121.98L117.61 108.873L130.045 113.549" stroke="white" stroke-width="1.60428" stroke-linecap="round" stroke-linejoin="round"/>
<path d="M112.336 194.415L103.148 190.959L104.746 181.274M115.583 195.64L124.771 199.096L126.369 189.411M119.355 172.843L128.543 176.299L126.945 185.984M105.311 177.846L106.909 168.161L116.097 171.617" stroke="white" stroke-width="1.60428" stroke-linecap="round" stroke-linejoin="round"/>
<path d="M95.243 194.127L89.2007 197.611" stroke="white" stroke-width="1.60428" stroke-linecap="round" stroke-linejoin="round"/>
<path d="M141.277 167.546L135.235 171.036" stroke="white" stroke-width="1.60428" stroke-linecap="round" stroke-linejoin="round"/>
<path d="M139.351 200.875L137.544 207.612" stroke="white" stroke-width="1.60428" stroke-linecap="round" stroke-linejoin="round"/>
<path d="M31.5549 172.916L29.7478 179.653" stroke="white" stroke-width="1.60428" stroke-linecap="round" stroke-linejoin="round"/>
<path d="M24.767 198.238L22.96 204.98" stroke="white" stroke-width="1.60428" stroke-linecap="round" stroke-linejoin="round"/>
<path d="M43.2894 193.24L36.5525 191.439" stroke="white" stroke-width="1.60428" stroke-linecap="round" stroke-linejoin="round"/>
<path d="M17.9623 186.458L11.2253 184.651" stroke="white" stroke-width="1.60428" stroke-linecap="round" stroke-linejoin="round"/>
<path d="M100.296 133.223L98.4893 139.96" stroke="white" stroke-width="1.60428" stroke-linecap="round" stroke-linejoin="round"/>
<path d="M93.5087 158.55L91.7017 165.287" stroke="white" stroke-width="1.60428" stroke-linecap="round" stroke-linejoin="round"/>
<path d="M112.031 153.552L105.294 151.745" stroke="white" stroke-width="1.60428" stroke-linecap="round" stroke-linejoin="round"/>
<path d="M86.7037 146.765L79.9668 144.963" stroke="white" stroke-width="1.60428" stroke-linecap="round" stroke-linejoin="round"/>
<path d="M-11.8652 223.39L-24.3 218.714L-22.1316 205.607M-7.46617 225.044L4.96865 229.72L7.13713 216.613M-2.36688 194.189L10.068 198.864L7.89947 211.971M-21.3692 200.965L-19.2008 187.858L-6.76594 192.534" stroke="white" stroke-width="1.60428" stroke-linecap="round" stroke-linejoin="round"/>
<path d="M-11.8652 223.39L-24.3 218.714L-22.1316 205.607M-7.46617 225.044L4.96865 229.72L7.13713 216.613M-2.36688 194.189L10.068 198.864L7.89947 211.971M-21.3692 200.965L-19.2008 187.858L-6.76594 192.534" stroke="white" stroke-width="1.60428" stroke-linecap="round" stroke-linejoin="round"/>
</g>
</g>
</g>
<defs>
<clipPath id="clip0_147_52950">
<rect width="150" height="200.535" rx="12" fill="white"/>
</clipPath>
</defs>
</svg>
