<svg width="20" height="20" viewBox="0 0 20 20" fill="none" xmlns="http://www.w3.org/2000/svg">
<path fill-rule="evenodd" clip-rule="evenodd" d="M4.00354 9.07695C4.00354 8.03832 4.07162 7.0555 4.15714 6.10241L4.15954 6.10757L4.1576 6.09655C4.27429 6.20717 4.38841 6.32078 4.50232 6.43418C4.88277 6.81296 5.26101 7.18953 5.72476 7.44433C6.07434 7.6364 6.50101 7.6421 6.84903 7.44724C6.9693 7.3799 7.09096 7.29593 7.19376 7.19331C7.68494 6.70298 7.44022 5.90675 6.95354 5.41196L6.11337 4.5578C6.02334 3.53469 5.51588 1.99596 4.31271 1.66699H1.80945C1.80945 1.66699 1.59238 4.44061 1.69357 6.21735L1.69769 6.28979C1.74281 7.08372 1.77566 7.66176 1.92494 8.33766C2.2915 9.5803 2.68507 10.6151 4.10145 11.3763L4.10338 11.3744C4.04573 10.6332 4.00354 9.86376 4.00354 9.07695ZM15.9965 10.9237C15.9965 11.9624 15.9284 12.9452 15.8429 13.8983L15.8405 13.8931L15.8424 13.9041C15.7256 13.7935 15.6115 13.6798 15.4975 13.5664C15.1171 13.1876 14.739 12.8112 14.2753 12.5564C13.9256 12.3643 13.499 12.3586 13.151 12.5535C13.0307 12.6208 12.9091 12.7048 12.8063 12.8074C12.3151 13.2977 12.5598 14.094 13.0465 14.5887L13.8867 15.4429C13.9767 16.466 14.4841 18.0047 15.6873 18.3337H18.1905C18.1905 18.3337 18.4077 15.56 18.3065 13.7834L18.3023 13.7109C18.2572 12.917 18.2243 12.3389 18.0751 11.663C17.7085 10.4204 17.3149 9.38562 15.8986 8.62444L15.8966 8.62634C15.9543 9.36752 15.9965 10.1369 15.9965 10.9237ZM5.47445 11.4303C5.49911 12.2479 5.55537 13.0472 5.61519 13.8197C5.72407 15.2253 6.79842 16.4173 8.21123 16.6216C8.77713 16.7035 9.3729 16.7683 9.98657 16.7683C10.6002 16.7683 11.196 16.7035 11.7619 16.6216C12.0734 16.5766 12.3684 16.4835 12.6403 16.3508C12.6303 16.3028 12.621 16.2552 12.6123 16.208C12.3298 15.9286 11.948 15.5277 11.6823 15.1222C11.4622 14.7862 11.2059 14.2891 11.175 13.683C11.1404 13.003 11.3987 12.3707 11.8947 11.8756C12.5301 11.2412 13.5251 10.8808 14.5059 11.1471C14.5097 10.9631 14.5118 10.7783 14.5118 10.5927C14.5118 9.48242 14.438 8.39997 14.3579 7.36573C14.2491 5.96008 13.1747 4.76808 11.7619 4.56373C11.196 4.48189 10.6002 4.41707 9.98657 4.41707C9.3729 4.41707 8.77713 4.48189 8.21123 4.56373C8.16175 4.5709 8.11268 4.57927 8.06406 4.58882C8.137 4.68403 8.2063 4.78114 8.269 4.8785C8.48533 5.2144 8.73732 5.71165 8.76766 6.31768C8.80168 6.99768 8.5478 7.63002 8.0603 8.12514C7.43996 8.75518 6.47091 9.11507 5.51319 8.8589C5.48195 9.42705 5.46137 10.006 5.46137 10.5927C5.46137 10.6426 5.46152 10.6924 5.46181 10.7422C5.46975 10.8591 5.47822 10.9757 5.48711 11.0921C5.49581 11.2059 5.49136 11.3194 5.47445 11.4303Z" fill="#626273"/>
</svg>
