<svg width="22" height="22" viewBox="0 0 22 22" fill="currentColor" xmlns="http://www.w3.org/2000/svg">
<path d="M10.9999 14.6523C13.9903 14.6523 16.7738 12.9447 18.1327 10.2895V6.70312C18.1327 6.53215 18.2006 6.36823 18.3215 6.2474L21.0884 3.48047H0.911377L3.67831 6.2474C3.79918 6.36823 3.86707 6.53215 3.86707 6.70312V10.2895C5.226 12.9447 8.00943 14.6523 10.9999 14.6523ZM10.9999 13.3633C10.6439 13.3633 10.3554 13.0747 10.3554 12.7188C10.3554 12.3628 10.6439 12.0742 10.9999 12.0742C11.3558 12.0742 11.6444 12.3628 11.6444 12.7188C11.6444 13.0747 11.3558 13.3633 10.9999 13.3633ZM13.578 12.6725C13.2221 12.6725 12.9335 12.3839 12.9335 12.0279C12.9335 11.672 13.2221 11.3834 13.578 11.3834C13.934 11.3834 14.2225 11.672 14.2225 12.0279C14.2225 12.3839 13.934 12.6725 13.578 12.6725ZM16.1561 6.91797C16.5121 6.91797 16.8007 7.20655 16.8007 7.5625C16.8007 7.91845 16.5121 8.20703 16.1561 8.20703C15.8002 8.20703 15.5116 7.91845 15.5116 7.5625C15.5116 7.20655 15.8002 6.91797 16.1561 6.91797ZM15.4653 9.49609C15.8213 9.49609 16.1099 9.78467 16.1099 10.1406C16.1099 10.4966 15.8213 10.7852 15.4653 10.7852C15.1094 10.7852 14.8208 10.4966 14.8208 10.1406C14.8208 9.78467 15.1094 9.49609 15.4653 9.49609ZM8.42176 6.05859H13.578C13.934 6.05859 14.2225 6.34717 14.2225 6.70312C14.2225 7.05908 13.934 7.34766 13.578 7.34766H8.42176C8.0658 7.34766 7.77723 7.05908 7.77723 6.70312C7.77723 6.34717 8.0658 6.05859 8.42176 6.05859ZM8.42176 11.3834C8.77771 11.3834 9.06629 11.672 9.06629 12.0279C9.06629 12.3839 8.77771 12.6725 8.42176 12.6725C8.0658 12.6725 7.77723 12.3839 7.77723 12.0279C7.77723 11.672 8.0658 11.3834 8.42176 11.3834ZM7.17897 10.1406C7.17897 10.4966 6.89039 10.7852 6.53444 10.7852C6.17849 10.7852 5.88991 10.4966 5.88991 10.1406C5.88991 9.78467 6.17849 9.49609 6.53444 9.49609C6.89039 9.49609 7.17897 9.78467 7.17897 10.1406ZM5.84363 6.91797C6.19958 6.91797 6.48816 7.20655 6.48816 7.5625C6.48816 7.91845 6.19958 8.20703 5.84363 8.20703C5.48768 8.20703 5.1991 7.91845 5.1991 7.5625C5.1991 7.20655 5.48768 6.91797 5.84363 6.91797Z" />
<path d="M19.4218 6.97014V10.4416C19.4218 10.5397 19.3994 10.6364 19.3564 10.7245C18.5926 12.2882 17.4084 13.6027 15.9318 14.5263C14.4516 15.4521 12.7462 15.9415 11 15.9415C9.25375 15.9415 7.54836 15.4521 6.06813 14.5262C4.59155 13.6027 3.40729 12.2881 2.64352 10.7245C2.60047 10.6364 2.57812 10.5396 2.57812 10.4416V6.97009L0 4.39197V11C0 11.0889 0.0183906 11.1769 0.0540547 11.2584L0.116789 11.4018C2.00845 15.7257 6.28036 18.5196 11 18.5196C15.7196 18.5196 19.9915 15.7257 21.8832 11.4018L21.9459 11.2584C21.9816 11.1769 22 11.089 22 11V4.39201L19.4218 6.97014Z" />
</svg>
