<svg width="22" height="22" viewBox="0 0 22 22" fill="currentColor" xmlns="http://www.w3.org/2000/svg">
<g clip-path="url(#clip0_42_21534)">
<path d="M21.1062 15.5994L15.9341 1.38673C15.7541 0.894682 15.3864 0.494095 14.9114 0.272811C14.4365 0.0515261 13.8932 0.0276057 13.4007 0.206294L9.47852 1.63286H12.375C13.218 1.63377 14.0262 1.96906 14.6223 2.56517C15.2184 3.16128 15.5537 3.96952 15.5546 4.81254V19.7237L19.9258 18.1329C20.4179 17.9529 20.8185 17.5852 21.0398 17.1102C21.2611 16.6353 21.285 16.0919 21.1062 15.5994Z" />
<path d="M9.90453 13.1079C10.1251 12.887 10.249 12.5877 10.249 12.2755C10.249 11.9634 10.1251 11.664 9.90453 11.4431L7.56256 9.10083L5.22059 11.4428C5.11126 11.5521 5.02453 11.6819 4.96536 11.8248C4.90619 11.9676 4.87573 12.1207 4.87573 12.2754C4.87573 12.43 4.90619 12.5831 4.96536 12.7259C5.02453 12.8688 5.11126 12.9986 5.22059 13.1079C5.32992 13.2173 5.45972 13.304 5.60257 13.3632C5.74543 13.4223 5.89853 13.4528 6.05315 13.4528C6.20777 13.4528 6.36088 13.4223 6.50373 13.3632C6.64658 13.304 6.77638 13.2173 6.88572 13.1079L7.13734 12.8563C7.19318 12.8004 7.25949 12.756 7.33248 12.7258C7.40547 12.6955 7.48372 12.6799 7.56273 12.6799C7.64175 12.6799 7.71999 12.6955 7.79298 12.7258C7.86597 12.756 7.93228 12.8004 7.98812 12.8563L8.23975 13.1079C8.46071 13.3283 8.76006 13.4521 9.07214 13.4521C9.38422 13.4521 9.68357 13.3283 9.90453 13.1079Z" />
<path d="M12.375 2.83594H2.75C2.22595 2.83648 1.72352 3.0449 1.35296 3.41546C0.982403 3.78602 0.773983 4.28845 0.773438 4.8125V19.9375C0.773983 20.4615 0.982403 20.964 1.35296 21.3345C1.72352 21.7051 2.22595 21.9135 2.75 21.9141H12.375C12.899 21.9135 13.4015 21.7051 13.772 21.3345C14.1426 20.964 14.351 20.4615 14.3516 19.9375V4.8125C14.351 4.28845 14.1426 3.78602 13.772 3.41546C13.4015 3.0449 12.899 2.83648 12.375 2.83594ZM3.17969 6.875C3.10068 6.87505 3.02243 6.85952 2.94943 6.8293C2.87642 6.79909 2.81009 6.75478 2.75422 6.69891C2.69835 6.64304 2.65404 6.5767 2.62382 6.5037C2.59361 6.43069 2.57808 6.35245 2.57812 6.27344V5.24219C2.57812 5.08264 2.6415 4.92963 2.75432 4.81682C2.86713 4.704 3.02014 4.64062 3.17969 4.64062C3.33923 4.64062 3.49224 4.704 3.60506 4.81682C3.71787 4.92963 3.78125 5.08264 3.78125 5.24219V6.27344C3.7813 6.35245 3.76577 6.43069 3.73555 6.5037C3.70534 6.5767 3.66103 6.64304 3.60516 6.69891C3.54929 6.75478 3.48295 6.79909 3.40995 6.8293C3.33694 6.85952 3.2587 6.87505 3.17969 6.875ZM8.9375 15.8984C9.09704 15.8984 9.25005 15.9618 9.36287 16.0746C9.47568 16.1874 9.53906 16.3405 9.53906 16.5C9.53906 16.6595 9.47568 16.8126 9.36287 16.9254C9.25005 17.0382 9.09704 17.1016 8.9375 17.1016H6.1875C6.02796 17.1016 5.87495 17.0382 5.76213 16.9254C5.64932 16.8126 5.58594 16.6595 5.58594 16.5C5.58594 16.3405 5.64932 16.1874 5.76213 16.0746C5.87495 15.9618 6.02796 15.8984 6.1875 15.8984H6.96094V14.476C6.45199 14.6863 5.88588 14.7136 5.35905 14.5533C4.83221 14.393 4.37725 14.055 4.07166 13.5969C3.76607 13.1388 3.62875 12.5889 3.68311 12.041C3.73746 11.493 3.98012 10.9808 4.36975 10.5916L7.13728 7.82444C7.19309 7.76854 7.25937 7.7242 7.33234 7.69394C7.4053 7.66368 7.48351 7.64811 7.5625 7.64811C7.64149 7.64811 7.7197 7.66368 7.79266 7.69394C7.86563 7.7242 7.93191 7.76854 7.98772 7.82444L10.7552 10.592C11.1453 10.981 11.3884 11.4933 11.4429 12.0414C11.4975 12.5896 11.3602 13.1398 11.0545 13.5981C10.7488 14.0563 10.2936 14.3944 9.76649 14.5546C9.23939 14.7147 8.67306 14.6871 8.16406 14.4763V15.8984H8.9375ZM12.5469 19.5078C12.5469 19.6674 12.4835 19.8204 12.3707 19.9332C12.2579 20.046 12.1049 20.1094 11.9453 20.1094C11.7858 20.1094 11.6328 20.046 11.5199 19.9332C11.4071 19.8204 11.3438 19.6674 11.3438 19.5078V18.4766C11.3438 18.317 11.4071 18.164 11.5199 18.0512C11.6328 17.9384 11.7858 17.875 11.9453 17.875C12.1049 17.875 12.2579 17.9384 12.3707 18.0512C12.4835 18.164 12.5469 18.317 12.5469 18.4766V19.5078Z" />
</g>
<defs>
<clipPath id="clip0_42_21534">
<rect width="22" height="22" fill="currentColor"/>
</clipPath>
</defs>
</svg>
