<svg width="20" height="20" viewBox="0 0 20 20" fill="none" xmlns="http://www.w3.org/2000/svg">
<path fill-rule="evenodd" clip-rule="evenodd" d="M4.5185 1.95166C6.27985 1.76666 8.11929 1.66699 10 1.66699C11.8767 1.66699 13.6838 1.77278 15.4442 1.9548C16.7627 2.09113 17.8487 3.08857 18.0389 4.4223C18.2262 5.73484 18.3334 7.10266 18.3334 8.49792C18.3334 9.88572 18.2158 11.2306 18.0324 12.5298C17.8416 13.8811 16.7442 14.9032 15.4016 15.0395C13.7064 15.2117 11.956 15.3229 10.147 15.3286C8.88091 16.7456 7.83205 17.5007 6.09814 18.2795C5.90713 18.3653 5.68566 18.3484 5.50987 18.2346C5.33408 18.1208 5.22795 17.9258 5.22795 17.7164V15.0456L4.9506 15.0198L4.68175 14.9948C3.32234 14.8682 2.14066 13.8672 1.94453 12.4584C1.76606 11.1763 1.66669 9.85694 1.66669 8.49792C1.66669 7.09341 1.76589 5.71023 1.95735 4.38426C2.14744 3.06783 3.21949 2.0881 4.5185 1.95166ZM6.21916 6.30412C6.21916 5.87798 6.56461 5.53251 6.99076 5.53251H13.0093C13.4354 5.53251 13.7809 5.87798 13.7809 6.30412C13.7809 6.73026 13.4354 7.07572 13.0093 7.07572H6.99076C6.56461 7.07572 6.21916 6.73026 6.21916 6.30412ZM6.21916 10.0078C6.21916 9.58168 6.56461 9.23621 6.99076 9.23621H11.5432C11.9694 9.23621 12.3148 9.58168 12.3148 10.0078C12.3148 10.434 11.9694 10.7794 11.5432 10.7794H6.99076C6.56461 10.7794 6.21916 10.434 6.21916 10.0078Z" fill="#626273"/>
</svg>
