<svg width="22" height="22" viewBox="0 0 22 22" fill="currentColor" xmlns="http://www.w3.org/2000/svg">
<path d="M10.9926 13.4292C10.5113 13.4296 10.0407 13.2871 9.64056 13.0196C9.2404 12.7521 8.92873 12.3718 8.74507 11.9269C8.56142 11.482 8.51407 10.9926 8.60903 10.5208C8.70399 10.0489 8.93698 9.6159 9.27844 9.27669C9.34284 9.21289 9.41918 9.16239 9.5031 9.1281C9.58701 9.0938 9.67686 9.07636 9.76751 9.07679C9.85817 9.07722 9.94785 9.09549 10.0314 9.13058C10.115 9.16566 10.1909 9.21687 10.2547 9.28127C10.3185 9.34567 10.369 9.42201 10.4033 9.50593C10.4376 9.58984 10.455 9.67969 10.4546 9.77034C10.4542 9.861 10.4359 9.95068 10.4008 10.0343C10.3657 10.1179 10.3145 10.1937 10.2501 10.2575C10.1512 10.3542 10.0727 10.4697 10.0192 10.5972C9.96564 10.7248 9.93819 10.8617 9.93844 11C9.92625 11.2177 9.98247 11.4338 10.0992 11.618C10.216 11.8021 10.3874 11.9452 10.5895 12.027C10.7916 12.1089 11.0143 12.1254 11.2263 12.0744C11.4383 12.0234 11.629 11.9074 11.7718 11.7425C11.9022 11.6132 12.0785 11.5407 12.2622 11.5407C12.4459 11.5407 12.6221 11.6132 12.7526 11.7425C12.8797 11.8741 12.9508 12.05 12.9508 12.2329C12.9508 12.4159 12.8797 12.5918 12.7526 12.7234C12.5209 12.9522 12.246 13.1324 11.9437 13.2536C11.6415 13.3748 11.3182 13.4345 10.9926 13.4292Z" />
<path d="M20.3886 11C20.3886 13.4919 19.3987 15.8818 17.6366 17.6438C15.8746 19.4059 13.4847 20.3958 10.9928 20.3958C8.50083 20.3958 6.11096 19.4059 4.3489 17.6438C2.58684 15.8818 1.59692 13.4919 1.59692 11C1.59692 8.50803 2.58684 6.11816 4.3489 4.3561C6.11096 2.59404 8.50083 1.60413 10.9928 1.60413C11.1751 1.60413 11.35 1.67656 11.4789 1.80549C11.6078 1.93442 11.6803 2.10929 11.6803 2.29163V5.77496C11.6779 5.95656 11.6047 6.13005 11.4763 6.25847C11.3478 6.38689 11.1744 6.46008 10.9928 6.46246C10.095 6.45628 9.21635 6.72148 8.47192 7.22329C7.72331 7.71944 7.1395 8.42739 6.795 9.25679C6.4505 10.0862 6.36095 10.9994 6.53776 11.88C6.8253 12.9246 7.47361 13.8335 8.36766 14.4456C9.2617 15.0576 10.3437 15.3332 11.4215 15.2233C12.4994 15.1134 13.5035 14.6252 14.2557 13.8454C15.0078 13.0655 15.4594 12.0444 15.5303 10.9633C15.529 10.8727 15.546 10.7827 15.5801 10.6987C15.6142 10.6148 15.6648 10.5385 15.7289 10.4744C15.793 10.4103 15.8692 10.3597 15.9532 10.3256C16.0372 10.2915 16.1271 10.2746 16.2178 10.2758H19.7011C19.7945 10.2757 19.887 10.2946 19.9729 10.3314C20.0588 10.3682 20.1363 10.4222 20.2007 10.4899C20.265 10.5577 20.3149 10.6379 20.3472 10.7256C20.3795 10.8133 20.3936 10.9066 20.3886 11Z" />
<path d="M20.0584 5.61913C20.0344 5.79747 19.9615 5.96566 19.8475 6.10496L17.8584 8.09413C17.5755 8.37816 17.2255 8.58624 16.8409 8.69913C16.6152 8.76842 16.3802 8.80243 16.1442 8.79996C15.9826 8.81429 15.82 8.81429 15.6584 8.79996L14.4392 8.56163L12.3492 10.6608C12.2178 10.7858 12.0447 10.8576 11.8634 10.8625C11.6811 10.8623 11.5064 10.7898 11.3775 10.6608C11.3127 10.5976 11.2611 10.522 11.2259 10.4386C11.1907 10.3552 11.1726 10.2655 11.1726 10.175C11.1726 10.0844 11.1907 9.99476 11.2259 9.91132C11.2611 9.82788 11.3127 9.75233 11.3775 9.68913L13.4767 7.5808L13.2292 6.37079C13.1552 5.98078 13.1741 5.57884 13.2842 5.19746C13.3971 4.81281 13.6052 4.46285 13.8892 4.17996L15.86 2.20913C15.9955 2.08594 16.1647 2.00612 16.3459 1.97996C16.5154 1.95539 16.6884 1.98423 16.8409 2.06246C16.9921 2.1394 17.1191 2.25681 17.2075 2.40163C17.2971 2.56368 17.3354 2.74903 17.3175 2.93329L17.0242 5.00496L19.0867 4.72079C19.2594 4.70385 19.4331 4.73941 19.5852 4.82282C19.7373 4.90623 19.8607 5.03361 19.9392 5.18829C20.0139 5.31987 20.0548 5.46788 20.0584 5.61913Z" />
</svg>
