<svg width="22" height="22" viewBox="0 0 22 22" fill="currentColor" xmlns="http://www.w3.org/2000/svg">
<path d="M5.79975 17.4167C5.67019 17.4167 5.56142 17.3727 5.47342 17.2847C5.38542 17.1967 5.34142 17.0876 5.34142 16.9574C5.34142 16.8273 5.38542 16.7185 5.47342 16.6311C5.56142 16.5437 5.67019 16.5 5.79975 16.5H16.2003C16.3304 16.5 16.4392 16.544 16.5266 16.632C16.614 16.72 16.658 16.8291 16.6586 16.9592C16.6592 17.0894 16.6152 17.1982 16.5266 17.2856C16.438 17.373 16.3292 17.4167 16.2003 17.4167H5.79975ZM6.512 14.773C6.15144 14.773 5.83733 14.6599 5.56967 14.4338C5.302 14.2077 5.13028 13.9205 5.0545 13.5722L3.96 7.76875C3.92944 7.78097 3.89522 7.78769 3.85733 7.78892C3.81883 7.79075 3.78431 7.79167 3.75375 7.79167C3.46592 7.79167 3.22667 7.69389 3.036 7.49833C2.84533 7.30278 2.75 7.06567 2.75 6.787C2.75 6.49794 2.84564 6.25228 3.03692 6.05C3.22758 5.84833 3.46714 5.7475 3.75558 5.7475C4.04403 5.7475 4.28939 5.84833 4.49167 6.05C4.69333 6.25228 4.79417 6.49794 4.79417 6.787C4.79417 6.85056 4.79172 6.90953 4.78683 6.96392C4.78194 7.01831 4.76392 7.07208 4.73275 7.12525L7.26275 8.14367C7.38008 8.19072 7.49772 8.19683 7.61567 8.162C7.733 8.12656 7.83261 8.05597 7.9145 7.95025L10.3913 4.59525C10.2587 4.50847 10.1536 4.39358 10.076 4.25058C9.99839 4.10819 9.95958 3.9545 9.95958 3.7895C9.95958 3.50106 10.0607 3.25569 10.263 3.05342C10.4647 2.85114 10.71 2.75 10.9991 2.75C11.2875 2.75 11.5332 2.85083 11.7361 3.0525C11.939 3.25417 12.0404 3.49861 12.0404 3.78583C12.0404 3.95939 12.0016 4.11583 11.924 4.25517C11.8464 4.39572 11.7413 4.50908 11.6087 4.59525L14.0855 7.95025C14.1674 8.05597 14.267 8.12625 14.3843 8.16108C14.5023 8.19714 14.6199 8.19164 14.7373 8.14458L17.2673 7.12525C17.2508 7.07636 17.2364 7.02289 17.2242 6.96483C17.2119 6.90617 17.2058 6.84689 17.2058 6.787C17.2058 6.49794 17.3012 6.25228 17.4918 6.05C17.6825 5.84833 17.9221 5.7475 18.2105 5.7475C18.4989 5.7475 18.7443 5.84833 18.9466 6.05C19.1489 6.25228 19.25 6.49794 19.25 6.787C19.25 7.06444 19.1486 7.30125 18.9457 7.49742C18.7428 7.69358 18.4965 7.79167 18.2068 7.79167C18.1836 7.79167 18.1573 7.788 18.128 7.78067C18.0987 7.77333 18.0663 7.76936 18.0308 7.76875L16.9455 13.5713C16.8691 13.9208 16.6974 14.2083 16.4303 14.4338C16.1633 14.6593 15.8492 14.7724 15.488 14.773H6.512Z" />
</svg>
