<svg width="22" height="22" viewBox="0 0 22 22" fill="currentColor" xmlns="http://www.w3.org/2000/svg">
<path d="M13.9809 9.79821C13.0761 8.71655 12.6242 8.17571 12.1036 8.25821C11.5838 8.34163 11.3409 8.9943 10.8551 10.2996L10.7286 10.637C10.5911 11.0082 10.5214 11.1934 10.3866 11.33C10.2528 11.4665 10.0676 11.539 9.69914 11.6838L9.36272 11.8149C8.0638 12.3236 7.41389 12.5785 7.33964 13.0982C7.26539 13.618 7.8163 14.0598 8.91722 14.9416L9.20139 15.1708C9.51489 15.421 9.67164 15.5466 9.76147 15.718C9.85314 15.8895 9.86689 16.0884 9.8953 16.4853L9.92189 16.8465C10.0227 18.2425 10.0741 18.941 10.548 19.1794C11.0219 19.4177 11.6058 19.0373 12.7727 18.2783L13.0743 18.0812C13.4061 17.8658 13.5721 17.7576 13.7618 17.7265C13.9525 17.6962 14.1468 17.7466 14.5327 17.8475L14.8856 17.9391C16.2469 18.293 16.928 18.4708 17.2956 18.0977C17.6631 17.7246 17.4725 17.049 17.093 15.696L16.994 15.3477C16.8867 14.9627 16.8326 14.7702 16.8592 14.5805C16.8867 14.3898 16.9921 14.223 17.2021 13.8875L17.3946 13.5831C18.1343 12.4052 18.5037 11.8167 18.2562 11.3483C18.0096 10.8799 17.3093 10.8414 15.9077 10.7662L15.5447 10.746C15.1469 10.725 14.9471 10.714 14.7738 10.6269C14.5996 10.5398 14.4713 10.3858 14.2146 10.0778L13.9809 9.79821Z" />
<path d="M13.638 4.73637L13.8058 5.21487C13.99 5.74012 14.0826 6.0032 14.2614 6.1957C14.441 6.39004 14.6867 6.4927 15.179 6.69712L15.6272 6.88412C17.3597 7.60462 18.226 7.96579 18.324 8.70187C18.3653 9.00804 18.2626 9.29587 18.0215 9.6167C17.9446 9.59584 17.8669 9.5775 17.7887 9.5617C17.3065 9.46362 16.6933 9.43062 16.0681 9.39671L15.619 9.37287L15.4081 9.36095L15.2697 9.19595L14.98 8.85037C14.5767 8.36637 14.1825 7.89429 13.814 7.56612C13.4226 7.21595 12.7681 6.75945 11.8863 6.90062C10.9953 7.04362 10.5205 7.69171 10.2638 8.15371C10.0264 8.58271 9.81279 9.15654 9.59646 9.73679L9.44063 10.1566L9.37463 10.3335C9.32574 10.3519 9.26677 10.3751 9.19771 10.4032L8.77971 10.5664C8.20221 10.7928 7.63113 11.0155 7.2058 11.2603C6.7493 11.5234 6.10579 12.0092 5.97838 12.9039C5.85279 13.7903 6.32488 14.4375 6.68146 14.8215C6.9473 15.1066 7.30571 15.4082 7.68796 15.718C6.24971 16.1076 5.48521 16.2534 5.05071 15.784C4.56121 15.256 4.81421 14.299 5.32113 12.3832L5.4513 11.8882C5.59521 11.3428 5.66763 11.0715 5.63188 10.801C5.59521 10.5315 5.45496 10.2941 5.17446 9.8202L4.91963 9.38937C3.93238 7.72012 3.43921 6.88595 3.76738 6.22137C4.09738 5.5577 5.03146 5.50362 6.90054 5.39637L7.38363 5.36887C7.9153 5.3377 8.18021 5.32304 8.41213 5.19929C8.64313 5.07554 8.81454 4.85829 9.15738 4.42195L9.46904 4.02595C10.6754 2.49237 11.2785 1.72604 11.9715 1.84429C12.6645 1.96254 12.989 2.88654 13.6371 4.73545" />
</svg>
