<svg width="22" height="22" viewBox="0 0 22 22" fill="currentColor" xmlns="http://www.w3.org/2000/svg">
<path d="M17.3349 18.4945C15.5478 19.7737 13.3603 20.5275 11 20.5275C8.63953 20.5275 6.45199 19.7737 4.66492 18.4944L2.25983 20.8996C2.07549 21.084 2.02036 21.3612 2.12014 21.6021C2.21991 21.8429 2.45491 21.9999 2.7156 21.9999H19.2843C19.545 21.9999 19.7801 21.8429 19.8798 21.6021C19.9795 21.3612 19.9244 21.084 19.7401 20.8996L17.3349 18.4945Z" />
<path d="M10.9999 14.8429C13.8802 14.8429 16.2235 12.4996 16.2235 9.61933C16.2235 6.73905 13.8802 4.39575 10.9999 4.39575C8.11967 4.39575 5.77637 6.73901 5.77637 9.61929C5.77637 12.4996 8.11967 14.8429 10.9999 14.8429ZM8.08087 8.19174L9.45419 7.49199L10.5442 6.40209C10.7962 6.15012 11.2044 6.15077 11.4557 6.40218L12.5454 7.49204L13.9187 8.19174C14.2358 8.35335 14.362 8.74144 14.2004 9.05859L13.5008 10.4319L13.2596 11.9543C13.2311 12.1341 13.0231 12.5694 12.5222 12.49L10.9999 12.2488L9.47735 12.4899C9.12677 12.5456 8.7957 12.3063 8.73992 11.954L8.49908 10.4318L7.79921 9.05863C7.63773 8.74183 7.76363 8.35339 8.08087 8.19174Z" />
<path d="M10.9999 19.2385C16.304 19.2385 20.6192 14.9233 20.6192 9.61924C20.6192 4.31518 16.304 0 10.9999 0C5.69584 0 1.38062 4.31518 1.38062 9.61924C1.38062 14.9233 5.69584 19.2385 10.9999 19.2385ZM10.9999 3.10664C14.591 3.10664 17.5125 6.02817 17.5125 9.61924C17.5125 13.2103 14.591 16.1319 10.9999 16.1319C7.40883 16.1319 4.48726 13.2103 4.48726 9.61924C4.48726 6.02817 7.40883 3.10664 10.9999 3.10664Z" />
<path d="M9.75645 10.1295L9.91251 11.1159L10.8992 10.9596C10.9326 10.9543 10.9663 10.9517 11 10.9517C11.0337 10.9517 11.0674 10.9543 11.1008 10.9596L12.0873 11.1159L12.2436 10.1293C12.2542 10.0625 12.2752 9.99782 12.3059 9.93762L12.7593 9.04761L11.8693 8.59416C11.809 8.56344 11.7539 8.52343 11.7061 8.47556L10.9999 7.76929L10.2935 8.47561C10.2457 8.52339 10.1906 8.56339 10.1304 8.59412L9.24048 9.04756L9.69406 9.93749C9.72478 9.99786 9.74583 10.0626 9.75645 10.1295Z" />
</svg>
