<svg width="22" height="22" viewBox="0 0 22 22" fill="currentColor" xmlns="http://www.w3.org/2000/svg">
<path d="M19.4379 7.1179C19.2094 6.62882 18.8388 6.21994 18.3745 5.94457L12.4437 2.2779C12.0087 2.00839 11.5071 1.8656 10.9953 1.8656C10.4836 1.8656 9.98203 2.00839 9.54702 2.2779L3.61618 5.94457C3.16659 6.23091 2.80991 6.64173 2.58952 7.12707C2.36058 7.6124 2.28388 8.15566 2.36952 8.6854L3.90952 17.8521C4.00827 18.4913 4.33363 19.0737 4.82618 19.4929C5.31483 19.9022 5.93048 20.129 6.56785 20.1346H15.3862C16.0362 20.1376 16.6662 19.9102 17.1645 19.4929C17.6597 19.0758 17.9856 18.4924 18.0812 17.8521L19.6212 8.6854C19.7145 8.15621 19.6508 7.61127 19.4379 7.1179ZM14.0662 16.0096H7.93368C7.69057 16.0096 7.45741 15.913 7.2855 15.7411C7.11359 15.5692 7.01702 15.336 7.01702 15.0929C7.01702 14.8498 7.11359 14.6166 7.2855 14.4447C7.45741 14.2728 7.69057 14.1762 7.93368 14.1762H14.0662C14.3093 14.1762 14.5425 14.2728 14.7144 14.4447C14.8863 14.6166 14.9829 14.8498 14.9829 15.0929C14.9829 15.336 14.8863 15.5692 14.7144 15.7411C14.5425 15.913 14.3093 16.0096 14.0662 16.0096Z"/>
</svg>
