<svg width="22" height="22" viewBox="0 0 22 22" fill="currentColor" xmlns="http://www.w3.org/2000/svg">
<path d="M5.99826 4.58373C5.92482 4.5088 5.83734 4.44907 5.74081 4.40797C5.64428 4.36686 5.5406 4.34518 5.43569 4.34415C5.33077 4.34313 5.22669 4.36279 5.12938 4.40201C5.03207 4.44123 4.94344 4.49924 4.86856 4.57273C4.02175 5.41505 3.34999 6.41661 2.89198 7.51971C2.43398 8.62281 2.19879 9.80563 2.19996 11C2.19871 12.2403 2.45233 13.4676 2.94506 14.6057C3.4378 15.7439 4.15914 16.7687 5.06436 17.6165C5.21673 17.7574 5.418 17.8333 5.62543 17.8282C5.83287 17.823 6.03014 17.7372 6.17536 17.589C6.52296 17.2414 6.48006 16.6881 6.14566 16.368C5.4191 15.6756 4.84093 14.8427 4.44629 13.9199C4.05164 12.9971 3.84875 12.0037 3.84996 11C3.84996 8.96943 4.66506 7.12803 5.98726 5.78823C6.30626 5.46373 6.33926 4.92473 5.99826 4.58373ZM7.93536 6.52303C7.79049 6.37396 7.59243 6.28841 7.38459 6.28511C7.17675 6.28181 6.97608 6.36104 6.82656 6.50543C6.23125 7.09267 5.75875 7.79249 5.43657 8.56414C5.11439 9.33578 4.94897 10.1638 4.94996 11C4.94996 12.8612 5.75296 14.5343 7.03226 15.6915C7.18337 15.8248 7.37995 15.8948 7.58127 15.887C7.78258 15.8792 7.97318 15.7942 8.11356 15.6497C8.47436 15.2889 8.40726 14.7213 8.06846 14.4023C7.6042 13.9657 7.23437 13.4385 6.9818 12.8533C6.72923 12.2681 6.59927 11.6374 6.59996 11C6.59996 9.73503 7.10266 8.58663 7.91996 7.74403C8.23456 7.42063 8.28626 6.87283 7.93536 6.52303ZM14.0646 6.52193C14.2094 6.37286 14.4075 6.28731 14.6153 6.28401C14.8232 6.28071 15.0238 6.35994 15.1734 6.50433C15.7688 7.0917 16.2414 7.7917 16.5636 8.56355C16.8857 9.33539 17.0511 10.1636 17.05 11C17.05 12.8612 16.247 14.5343 14.9677 15.6915C14.8165 15.8248 14.62 15.8948 14.4186 15.887C14.2173 15.8792 14.0267 15.7942 13.8864 15.6497C13.5256 15.2889 13.5927 14.7213 13.9315 14.4023C14.3957 13.9657 14.7655 13.4385 15.0181 12.8533C15.2707 12.2681 15.4006 11.6374 15.4 11C15.4 9.73503 14.8973 8.58663 14.08 7.74403C13.7654 7.42063 13.7137 6.87173 14.0646 6.52193ZM16.0017 4.58373C16.0751 4.5088 16.1626 4.44907 16.2591 4.40797C16.3556 4.36686 16.4593 4.34518 16.5642 4.34415C16.6691 4.34313 16.7732 4.36279 16.8705 4.40201C16.9678 4.44123 17.0565 4.49924 17.1314 4.57273C17.9782 5.41505 18.6499 6.41661 19.1079 7.51971C19.5659 8.62281 19.8011 9.80563 19.8 11C19.8012 12.2403 19.5476 13.4676 19.0549 14.6057C18.5621 15.7439 17.8408 16.7687 16.9356 17.6165C16.7832 17.7574 16.5819 17.8333 16.3745 17.8282C16.167 17.823 15.9698 17.7372 15.8246 17.589C15.477 17.2414 15.5199 16.6881 15.8554 16.368C16.5817 15.6755 17.1597 14.8426 17.5541 13.9198C17.9486 12.997 18.1513 12.0036 18.15 11C18.15 8.96943 17.3349 7.12803 16.0127 5.78823C15.6937 5.46373 15.6607 4.92473 16.0017 4.58373ZM11 9.35003C10.5623 9.35003 10.1427 9.52387 9.83323 9.8333C9.52379 10.1427 9.34996 10.5624 9.34996 11C9.34996 11.4376 9.52379 11.8573 9.83323 12.1668C10.1427 12.4762 10.5623 12.65 11 12.65C11.4376 12.65 11.8572 12.4762 12.1667 12.1668C12.4761 11.8573 12.65 11.4376 12.65 11C12.65 10.5624 12.4761 10.1427 12.1667 9.8333C11.8572 9.52387 11.4376 9.35003 11 9.35003Z" />
</svg>
