<svg width="22" height="22" viewBox="0 0 22 22" fill="currentColor" xmlns="http://www.w3.org/2000/svg">
<path d="M19.2133 16.8667C18.3333 17.3067 17.1599 17.0133 16.5733 16.1333L14.9599 14.08H7.03993L5.4266 16.1333C4.69326 17.16 3.37326 17.3067 2.3466 16.5733C1.61326 15.9867 1.31993 15.1067 1.4666 14.3733L2.49326 8.94667C2.7866 7.18667 4.39993 5.86667 6.15993 5.86667H10.2666V3.66667C10.2666 2.49334 11.1466 1.46667 12.3199 1.46667H16.8666C17.3066 1.46667 17.5999 1.76001 17.5999 2.20001C17.5999 2.64001 17.3066 2.93334 16.8666 2.93334H12.4666C12.0266 2.93334 11.7333 3.22667 11.7333 3.52001V5.86667H15.8399C17.5999 5.86667 19.2133 7.18667 19.5066 8.94667L20.5333 14.3733C20.6799 15.4 20.2399 16.4267 19.2133 16.8667ZM8.79993 9.53334C8.79993 8.36001 7.77326 7.33334 6.59993 7.33334C5.4266 7.33334 4.39993 8.36001 4.39993 9.53334C4.39993 10.7067 5.4266 11.7333 6.59993 11.7333C7.77326 11.7333 8.79993 10.7067 8.79993 9.53334ZM17.5999 9.53334C17.5999 9.09334 17.3066 8.80001 16.8666 8.80001H16.1333V8.06667C16.1333 7.62667 15.8399 7.33334 15.3999 7.33334C14.9599 7.33334 14.6666 7.62667 14.6666 8.06667V8.80001H13.9333C13.4933 8.80001 13.1999 9.09334 13.1999 9.53334C13.1999 9.97334 13.4933 10.2667 13.9333 10.2667H14.6666V11C14.6666 11.44 14.9599 11.7333 15.3999 11.7333C15.8399 11.7333 16.1333 11.44 16.1333 11V10.2667H16.8666C17.3066 10.2667 17.5999 9.97334 17.5999 9.53334Z" />
</svg>
