<svg width="22" height="22" viewBox="0 0 22 22" fill="currentColor" xmlns="http://www.w3.org/2000/svg">
<path fill-rule="evenodd" clip-rule="evenodd" d="M13.398 2.84899L10.7498 1.26086L8.10154 2.84899L5.02567 3.12124L3.81567 5.96199L1.48779 7.99011L2.17942 11L1.48779 14.0099L3.81567 16.038L5.02567 18.8787L8.10154 19.151L10.7498 20.7391L13.398 19.151L16.4739 18.8787L17.6839 16.038L20.0132 14.0099L19.3188 11L20.0118 7.99011L17.6825 5.96199L16.4725 3.12124L13.398 2.84899ZM7.56254 8.93749C7.56254 8.75515 7.63498 8.58029 7.76391 8.45135C7.89284 8.32242 8.06771 8.24999 8.25004 8.24999C8.43238 8.24999 8.60725 8.32242 8.73618 8.45135C8.86511 8.58029 8.93754 8.75515 8.93754 8.93749C8.93754 9.11983 8.86511 9.29469 8.73618 9.42362C8.60725 9.55256 8.43238 9.62499 8.25004 9.62499C8.06771 9.62499 7.89284 9.55256 7.76391 9.42362C7.63498 9.29469 7.56254 9.11983 7.56254 8.93749ZM8.25004 6.87499C7.70303 6.87499 7.17843 7.09229 6.79164 7.47908C6.40484 7.86588 6.18754 8.39048 6.18754 8.93749C6.18754 9.4845 6.40484 10.0091 6.79164 10.3959C7.17843 10.7827 7.70303 11 8.25004 11C8.79705 11 9.32166 10.7827 9.70845 10.3959C10.0952 10.0091 10.3125 9.4845 10.3125 8.93749C10.3125 8.39048 10.0952 7.86588 9.70845 7.47908C9.32166 7.09229 8.79705 6.87499 8.25004 6.87499ZM8.04929 14.9242L14.9243 8.04924L13.9508 7.07574L7.07579 13.9507L8.04929 14.9242ZM13.0625 13.75C13.0625 13.5677 13.135 13.3928 13.2639 13.2639C13.3928 13.1349 13.5677 13.0625 13.75 13.0625C13.9324 13.0625 14.1072 13.1349 14.2362 13.2639C14.3651 13.3928 14.4375 13.5677 14.4375 13.75C14.4375 13.9323 14.3651 14.1072 14.2362 14.2361C14.1072 14.3651 13.9324 14.4375 13.75 14.4375C13.5677 14.4375 13.3928 14.3651 13.2639 14.2361C13.135 14.1072 13.0625 13.9323 13.0625 13.75ZM13.75 11.6875C13.203 11.6875 12.6784 11.9048 12.2916 12.2916C11.9048 12.6784 11.6875 13.203 11.6875 13.75C11.6875 14.297 11.9048 14.8216 12.2916 15.2084C12.6784 15.5952 13.203 15.8125 13.75 15.8125C14.2971 15.8125 14.8217 15.5952 15.2085 15.2084C15.5952 14.8216 15.8125 14.297 15.8125 13.75C15.8125 13.203 15.5952 12.6784 15.2085 12.2916C14.8217 11.9048 14.2971 11.6875 13.75 11.6875Z" />
</svg>
