<svg width="22" height="22" viewBox="0 0 22 22" fill="currentColor" xmlns="http://www.w3.org/2000/svg">
<path d="M8.58767 16.0119L6.83111 16.8679L5.61011 12.3586L7.32748 11.4999C7.97373 11.1767 8.68598 11.0083 9.40855 11.0083H13.658C14.2204 11.0083 14.7092 11.4786 14.7092 12.0595C14.7092 12.5909 14.2795 13.0626 13.7467 13.1059L12.327 13.2234C11.4209 13.2997 11.5336 14.6686 12.4404 14.5943L13.8594 14.4767C14.9587 14.386 15.847 13.55 16.0422 12.4954L18.7187 11.7611C19.2006 11.6291 19.7025 11.8897 19.8716 12.3599C20.038 12.8219 19.8269 13.3355 19.3835 13.5466L13.6786 16.6355C13.0502 16.9758 12.3139 17.0583 11.6264 16.8651L8.58767 16.0119Z" />
<path d="M5.54881 18.4168L1.375 20.625V13.4063L3.76613 12.3338C3.95863 12.2472 4.18344 12.3537 4.23844 12.5572L5.71931 18.0228C5.76194 18.1782 5.69044 18.3418 5.54881 18.4168Z" />
<path d="M13.8304 0.995558L13.2516 1.78481C13.2055 1.84737 13.1292 1.87625 13.0522 1.86181C12.5971 1.77656 12.1529 1.77656 11.6971 1.86181C11.6208 1.87625 11.5445 1.84737 11.4984 1.78481L10.9196 0.995558C10.8577 0.910996 10.7415 0.886246 10.6501 0.939183L9.28744 1.72568C9.196 1.77862 9.15956 1.89137 9.2015 1.98762L9.59681 2.88618C9.62844 2.95768 9.61469 3.03812 9.56381 3.09725C9.27025 3.43962 9.03719 3.83425 8.88319 4.26737C8.85706 4.34025 8.7945 4.39318 8.7175 4.40143L7.74606 4.508C7.64156 4.51968 7.5625 4.60768 7.5625 4.71356V6.28725C7.5625 6.39243 7.64156 6.48112 7.74606 6.49212L8.7175 6.59868C8.7945 6.60693 8.85775 6.65987 8.88319 6.73275C9.0365 7.16587 9.27025 7.56118 9.56381 7.90287C9.61469 7.962 9.62844 8.04312 9.59681 8.11393L9.2015 9.0125C9.15887 9.10875 9.196 9.2215 9.28744 9.27443L10.6501 10.0616C10.7415 10.1146 10.857 10.0898 10.9196 10.0052L11.4984 9.216C11.5445 9.15343 11.6208 9.12456 11.6971 9.139C12.1385 9.22218 12.5833 9.227 13.0522 9.139C13.1285 9.12456 13.2048 9.15343 13.2509 9.216L13.8297 10.0052C13.8916 10.0898 14.0078 10.1146 14.0992 10.0616L15.4619 9.27512C15.5533 9.22218 15.5898 9.10943 15.5478 9.01318L15.1525 8.11462C15.1209 8.04312 15.1346 7.96268 15.1855 7.90356C15.4791 7.56118 15.7121 7.16656 15.8661 6.73343C15.8922 6.66056 15.9548 6.60762 16.0318 6.59937L17.0033 6.49281C17.1084 6.48043 17.1875 6.39243 17.1875 6.28656V4.71287C17.1875 4.60768 17.1084 4.519 17.0039 4.508L16.0325 4.40212C15.9555 4.39387 15.8923 4.34093 15.8668 4.26806C15.7135 3.83493 15.4798 3.43962 15.1862 3.09793C15.1353 3.03881 15.1216 2.95768 15.1532 2.88687L15.5485 1.98831C15.5911 1.89206 15.554 1.77931 15.4626 1.72637L14.0999 0.939183C14.0085 0.886246 13.8923 0.910996 13.8304 0.995558ZM13.8634 6.35943C13.3891 7.18168 12.3379 7.46287 11.5156 6.9885C10.6934 6.51412 10.4122 5.46293 10.8866 4.64068C11.3609 3.81843 12.4121 3.53725 13.2344 4.01162C14.0566 4.486 14.3378 5.53718 13.8634 6.35943Z" />
</svg>
