<svg width="22" height="22" viewBox="0 0 22 22" fill="currentColor" xmlns="http://www.w3.org/2000/svg">
<path d="M8.24999 13.75H5.40833C5.04166 13.75 4.77033 13.586 4.59433 13.2578C4.41833 12.9296 4.43758 12.6125 4.65208 12.3063L11.5042 2.45213C11.6569 2.23824 11.8555 2.08944 12.1 2.00571C12.3444 1.92199 12.5965 1.92566 12.8562 2.01671C13.116 2.10777 13.3069 2.26819 13.4292 2.49796C13.5514 2.72774 13.5972 2.97219 13.5667 3.2313L12.8333 9.16671H16.3854C16.7826 9.16671 17.0616 9.34241 17.2223 9.6938C17.383 10.0452 17.3332 10.3737 17.0729 10.6792L9.53333 19.7084C9.36527 19.907 9.15902 20.0369 8.91458 20.098C8.67013 20.1591 8.43333 20.1362 8.20416 20.0292C7.97499 19.9223 7.79563 19.7582 7.66608 19.537C7.53652 19.3157 7.48672 19.075 7.51666 18.8146L8.24999 13.75Z" />
</svg>
