<svg width="22" height="22" viewBox="0 0 22 22" fill="currentColor" xmlns="http://www.w3.org/2000/svg">
<g clip-path="url(#clip0_42_21540)">
<path d="M11.5515 11C11.5515 11.3045 11.3046 11.5514 11.0001 11.5514C10.6955 11.5514 10.4487 11.3045 10.4487 11C10.4487 10.6953 10.6955 10.4486 11.0001 10.4486C11.3046 10.4486 11.5515 10.6953 11.5515 11Z" />
<path d="M18.7195 11C18.7195 6.73653 15.2634 3.2804 10.9999 3.2804C6.7364 3.2804 3.28027 6.73653 3.28027 11C3.28027 15.2635 6.7364 18.7196 10.9999 18.7196C15.2613 18.7147 18.7146 15.2615 18.7195 11ZM14.3083 12.1028C13.9212 12.0981 13.5658 11.8881 13.3749 11.5514H12.5525C12.386 12.0185 12.0184 12.3861 11.5513 12.5526V13.375C11.8881 13.5659 12.0981 13.9214 12.1028 14.3084C12.1028 14.9175 11.609 15.4112 10.9999 15.4112C10.3908 15.4112 9.89713 14.9175 9.89713 14.3084C9.90182 13.9214 10.1118 13.5659 10.4485 13.375V12.5526C9.98138 12.3859 9.6138 12.0185 9.4473 11.5514H8.62485C8.43401 11.8881 8.07851 12.0981 7.69145 12.1028C7.08234 12.1028 6.5887 11.6091 6.5887 11C6.5887 10.3909 7.08234 9.89708 7.69145 9.89708C8.07851 9.90178 8.43401 10.1118 8.62485 10.4486H9.4473C9.6138 9.98151 9.98138 9.61392 10.4485 9.44742V8.62497C10.1118 8.43413 9.90182 8.07863 9.89713 7.69157C9.89713 7.08246 10.3908 6.58882 10.9999 6.58882C11.609 6.58882 12.1028 7.08246 12.1028 7.69157C12.0981 8.07863 11.8881 8.43396 11.5513 8.62497V9.44742C12.0184 9.61392 12.386 9.98151 12.5525 10.4486H13.3749C13.5658 10.1118 13.9212 9.90178 14.3083 9.89708C14.9174 9.89708 15.4111 10.3909 15.4111 11C15.4111 11.6091 14.9174 12.1028 14.3083 12.1028Z" />
<path d="M2.20567 11.5514H0C0.0746918 13.1104 0.482056 14.6354 1.1949 16.0238L3.10785 14.9196C2.584 13.8689 2.27718 12.7233 2.20567 11.5514Z" />
<path d="M2.20567 10.4486C2.27718 9.27657 2.58417 8.13118 3.10802 7.08029L1.19507 5.9762C0.482224 7.36462 0.0746918 8.88968 0 10.4486H2.20567Z" />
<path d="M19.7944 11.5514C19.7229 12.7233 19.4159 13.8689 18.8921 14.9196L20.805 16.0238C21.5179 14.6354 21.9254 13.1104 22.0001 11.5514H19.7944Z" />
<path d="M14.92 18.8918C13.8691 19.4159 12.7233 19.7229 11.5513 19.7944V22C13.1106 21.9253 14.6358 21.5178 16.0244 20.8048L14.92 18.8918Z" />
<path d="M10.4486 22V19.7944C9.27638 19.7227 8.13066 19.4157 7.07977 18.8918L5.97534 20.8046C7.36411 21.5176 8.88933 21.9252 10.4486 22Z" />
<path d="M11.5513 0V2.20567C12.7233 2.27734 13.8691 2.58434 14.92 3.10818L16.0244 1.1954C14.6358 0.482391 13.1106 0.0746918 11.5513 0Z" />
<path d="M6.123 18.3452C5.14529 17.6938 4.3064 16.855 3.65498 15.8773L1.74707 16.9787C2.59637 18.2883 3.71205 19.4039 5.02159 20.2531L6.123 18.3452Z" />
<path d="M18.345 15.8773C17.6936 16.855 16.8547 17.6938 15.877 18.3452L16.9785 20.2531C18.2881 19.4039 19.4037 18.2881 20.2529 16.9787L18.345 15.8773Z" />
<path d="M7.07977 3.10818C8.13066 2.58417 9.27638 2.27718 10.4486 2.20567V0C8.88933 0.0746918 7.36411 0.482224 5.97534 1.19524L7.07977 3.10818Z" />
<path d="M3.65498 6.12254C4.3064 5.145 5.14529 4.30627 6.12283 3.65469L5.02142 1.74695C3.71188 2.59608 2.59621 3.71193 1.74707 5.0213L3.65498 6.12254Z" />
<path d="M18.8921 7.08034C19.4159 8.13123 19.7228 9.27661 19.7944 10.4487H22.0001C21.9252 8.88956 21.5179 7.36467 20.805 5.97607L18.8921 7.08034Z" />
<path d="M15.877 3.65486C16.8547 4.30627 17.6936 5.145 18.345 6.12271L20.2529 5.0213C19.4037 3.71193 18.2879 2.59608 16.9785 1.74695L15.877 3.65486Z" />
</g>
<defs>
<clipPath id="clip0_42_21540">
<rect width="22" height="22" fill="currentColor"/>
</clipPath>
</defs>
</svg>
