<svg width="22" height="22" viewBox="0 0 22 22" fill="currentColor" xmlns="http://www.w3.org/2000/svg">
<path d="M10.9742 1.21515C8.409 1.20871 5.84807 1.68222 3.51744 2.65547L3.97549 4.33554H17.9738L18.4293 2.65547C16.0961 1.708 13.5352 1.2216 10.9742 1.21515ZM4.73518 5.33242V13.5223H17.2133V5.33242H4.73518ZM5.80939 6.40664H16.1391V12.448H5.80939V6.40664ZM19.7742 6.5914C19.2801 6.5914 18.8762 6.99101 18.8762 7.48945C18.8762 7.98359 19.2801 8.3832 19.7742 8.3832C20.2684 8.3832 20.6723 7.98359 20.6723 7.48945C20.6723 6.99101 20.2684 6.5914 19.7742 6.5914ZM6.80197 7.2789V11.6961H9.1051V7.2789H6.80197ZM9.82268 7.2789V11.6961H12.1258V7.2789H9.82268ZM12.8434 7.2789V11.6961H15.1465V7.2789H12.8434ZM19.0481 8.9289L18.7086 10.7594C18.4035 10.6219 18.1543 10.5789 18.1543 10.5789V13.5223L19.4477 14.2098L19.8602 12.0742C19.8129 11.7691 19.684 11.5242 19.5121 11.3266L19.9289 9.09218C19.8774 9.10078 19.8258 9.10078 19.7742 9.10078C19.5121 9.10078 19.2672 9.04062 19.0481 8.9289ZM4.50314 14.6867L2.51025 16.8352L2.93994 20.8398H19.0094L19.4391 16.8352L17.4453 14.6867H4.50314ZM15.2496 15.1809C15.4996 15.1808 15.7471 15.2011 15.978 15.2406C16.2089 15.2801 16.4188 15.338 16.5956 15.411C16.7723 15.4841 16.9126 15.5708 17.0082 15.6662C17.1039 15.7616 17.1531 15.8639 17.1531 15.9672C17.1509 15.9787 17.148 15.9901 17.1446 16.0016C17.1488 16.0102 17.1488 16.0144 17.1488 16.0187C17.1488 16.1262 17.0715 16.2293 16.9426 16.3195C16.785 16.4495 16.5434 16.5588 16.2445 16.6354C15.9457 16.712 15.6013 16.7529 15.2496 16.7535C14.9362 16.7531 14.6279 16.7208 14.352 16.6593C14.0762 16.5979 13.8413 16.5092 13.6684 16.4012C13.6395 16.3844 13.6123 16.3672 13.5867 16.3496C13.4363 16.2508 13.3418 16.1391 13.3418 16.0187C13.3418 16.0059 13.3461 15.9887 13.3461 15.9758C13.3461 15.9729 13.3461 15.97 13.3461 15.9672C13.3461 15.8639 13.3954 15.7616 13.491 15.6662C13.5867 15.5708 13.7269 15.4841 13.9037 15.411C14.0805 15.338 14.2903 15.2801 14.5212 15.2406C14.7522 15.2011 14.9997 15.1808 15.2496 15.1809ZM5.58166 15.3355H7.84611L7.29611 16.702H4.46877L5.58166 15.3355ZM8.81291 15.3355H11.5414L11 16.702H8.25861L8.81291 15.3355Z" />
</svg>
