<svg width="20" height="20" viewBox="0 0 20 20" fill="currentColor" xmlns="http://www.w3.org/2000/svg">
<path fill-rule="evenodd" clip-rule="evenodd" d="M1.66669 11.5559L1.66686 11.4694L1.66669 11.4231C1.66669 11.3716 1.66731 11.3207 1.66855 11.2704C1.70081 8.81219 2.15753 6.4588 3.41246 4.6795C4.75805 2.77169 6.91756 1.66699 10.0003 1.66699C13.0785 1.66699 15.2373 2.77203 16.5837 4.67914C17.7666 6.35443 18.2427 8.53886 18.3214 10.8412C18.3268 10.8792 18.33 10.9179 18.3308 10.9572L18.325 10.9574C18.3308 10.9573 18.3308 10.9572 18.3308 10.9572V10.9583V10.9597L18.3309 10.9638L18.331 10.9769L18.3313 11.0215C18.3314 11.0593 18.3313 11.1129 18.3304 11.1805C18.3304 11.1833 18.3303 11.1861 18.3303 11.189C18.3308 11.2168 18.3311 11.2446 18.3315 11.2725C18.3327 11.3221 18.3334 11.3724 18.3334 11.4231L18.3332 11.4692L18.3334 11.5559C18.3334 11.5847 18.332 11.6132 18.3294 11.6414C18.3219 11.8531 18.3031 12.0548 18.2742 12.2467C18.2408 12.6236 18.1878 13.0596 18.1038 13.5165C17.9795 14.1927 17.7815 14.9469 17.4587 15.6325C17.1385 16.3126 16.6619 16.9962 15.9417 17.4293C14.7489 18.1465 13.5291 18.3285 12.6272 18.3378C12.1741 18.3425 11.792 18.3037 11.5188 18.2629C11.3819 18.2424 11.2713 18.2211 11.1917 18.2042C11.1518 18.1957 11.1196 18.1883 11.0956 18.1825L11.0658 18.1752L11.0556 18.1725L11.0517 18.1715L11.0501 18.1711L11.0494 18.1709C11.049 18.1708 11.0487 18.1706 11.2876 17.2762L11.0487 18.1706C10.5546 18.0387 10.2611 17.5313 10.3931 17.0372C10.5247 16.5446 11.0296 16.2514 11.5222 16.3804L11.5291 16.3821C11.5376 16.3842 11.5537 16.3879 11.5767 16.3929C11.6228 16.4026 11.6963 16.4169 11.7929 16.4314C11.987 16.4604 12.2699 16.4895 12.6083 16.4861C13.2892 16.479 14.1579 16.341 14.9874 15.8423C15.1622 15.7371 15.33 15.5768 15.4867 15.3582C15.2288 15.4155 14.9864 15.4399 14.7766 15.4399C14.3197 15.4399 13.641 15.3177 13.0565 14.9284C12.4389 14.5169 11.9547 13.8209 11.9547 12.7829V10.0633C11.9547 9.61439 12.0949 8.96315 12.5258 8.40944C12.9787 7.82748 13.7131 7.40639 14.7766 7.40639C15.1141 7.40639 15.5356 7.46954 15.9705 7.63102C15.749 6.91897 15.4517 6.2865 15.0709 5.74719C14.1294 4.41364 12.5848 3.51885 10.0003 3.51885C7.41019 3.51885 5.86585 4.41398 4.92579 5.74683C4.54823 6.28215 4.253 6.9093 4.03259 7.61504C4.44434 7.46554 4.84193 7.40639 5.16343 7.40639C6.214 7.40639 6.9378 7.83161 7.38201 8.41432C7.80393 8.96778 7.9403 9.6172 7.9403 10.0633V12.7829C7.9403 13.8152 7.46898 14.5111 6.86029 14.9251C6.28448 15.3166 5.61529 15.4399 5.16343 15.4399C4.56151 15.4399 3.6928 15.2325 2.96398 14.613C2.24814 14.0045 1.71983 13.0428 1.67046 11.6401C1.66796 11.6124 1.66669 11.5843 1.66669 11.5559Z" />
</svg>
