<svg width="106" height="20" viewBox="0 0 106 20" fill="none" xmlns="http://www.w3.org/2000/svg">
<path d="M6.26398 19.6154L0 0.384033H4.80798L9.06626 14.5326L13.3245 0.384033H18.1325L11.8685 19.6154H6.26398Z" fill="#4264FF"/>
<path d="M19.7805 0.384583H24.176V19.616H19.7805V0.384583Z" fill="#4264FF"/>
<path d="M33.9291 20C31.9693 20 30.3345 19.5743 29.0251 18.7223C27.7153 17.8709 26.7863 16.7124 26.2366 15.2469L30.028 13.0492C30.7971 14.8259 32.1434 15.7143 34.0663 15.7143C35.8061 15.7143 36.676 15.1925 36.676 14.1486C36.676 13.5809 36.3964 13.1367 35.8383 12.816C35.2796 12.4958 34.2309 12.1249 32.6926 11.7034C31.8865 11.4834 31.1817 11.2365 30.5772 10.9617C29.9726 10.6869 29.3823 10.3255 28.8051 9.87655C28.228 9.42815 27.7886 8.86474 27.4863 8.18685C27.184 7.50949 27.0331 6.73085 27.0331 5.85144C27.0331 4.07523 27.6694 2.65562 28.9423 1.59316C30.2153 0.531231 31.7309 0 33.4892 0C35.0644 0 36.456 0.37086 37.6651 1.11258C38.8737 1.8543 39.8259 2.93047 40.5223 4.34058L36.8132 6.51087C36.465 5.77864 36.0345 5.2242 35.5218 4.84859C35.009 4.47352 34.3311 4.28519 33.4886 4.28519C32.8292 4.28519 32.3212 4.42709 31.964 4.71091C31.6069 4.99525 31.4281 5.33868 31.4281 5.74119C31.4281 6.21756 31.6523 6.62956 32.1012 6.97774C32.5496 7.32591 33.4791 7.71049 34.8898 8.13146C35.6589 8.36991 36.254 8.56193 36.6755 8.70859C37.0964 8.85524 37.6324 9.09791 38.2829 9.43659C38.9328 9.7758 39.4271 10.1329 39.7663 10.508C40.105 10.8836 40.4073 11.3779 40.6732 11.9915C40.9385 12.6055 41.0714 13.3061 41.0714 14.0932C41.0714 15.9248 40.412 17.3671 39.0932 18.42C37.7743 19.4735 36.0525 19.9995 33.9281 19.9995L33.9291 20Z" fill="#4264FF"/>
<path d="M55.2204 19.6154L54.2587 16.5931H47.1159L46.1542 19.6154H41.3462L47.885 0.384033H53.4896L60.0284 19.6154H55.2204ZM48.4347 12.4726H52.9404L50.6878 5.41199L48.4352 12.4726H48.4347Z" fill="#4264FF"/>
<path d="M73.5999 9.64284C75.1751 10.6504 75.9628 12.0975 75.9628 13.9834C75.9628 15.6504 75.3672 17.0057 74.177 18.0497C72.9864 19.0937 71.5119 19.6154 69.7537 19.6154H61.6765V0.384033H69.2039C70.9253 0.384033 72.3676 0.892053 73.5308 1.90862C74.6935 2.92518 75.2754 4.24877 75.2754 5.87834C75.2754 7.41664 74.7162 8.67165 73.5994 9.64231L73.5999 9.64284ZM69.2045 4.50516H66.0725V7.91199H69.2045C69.6988 7.91199 70.1018 7.75162 70.4131 7.43141C70.7243 7.11119 70.8799 6.70341 70.8799 6.2091C70.8799 5.7148 70.7243 5.30701 70.4131 4.98627C70.1013 4.66606 69.6988 4.50568 69.2045 4.50568V4.50516ZM69.7537 15.4948C70.3033 15.4948 70.7428 15.3255 71.0725 14.9868C71.4022 14.6481 71.5668 14.2039 71.5668 13.6542C71.5668 13.1045 71.4022 12.6609 71.0725 12.3217C70.7428 11.983 70.3033 11.8137 69.7537 11.8137H66.0725V15.4948H69.7537Z" fill="white"/>
<path d="M82.5558 15.3846H90.2484V19.6154H78.1604V0.384033H90.1112V4.61488H82.5564V7.80174H89.4244V11.9777H82.5564V15.3846H82.5558Z" fill="white"/>
<path d="M105.634 0.384583V4.61543H100.688V19.616H96.293V4.61543H91.3479V0.384583H105.634H105.634Z" fill="white"/>
</svg>
